<?xml version="1.0" encoding="UTF-8"?>
<!-- Generator: Adobe Illustrator 16.0.0, SVG Export Plug-In . SVG Version: 6.00 Build 0)  -->
<svg xmlns="http://www.w3.org/2000/svg" xmlns:xlink="http://www.w3.org/1999/xlink" id="Layer_1" x="0px" y="0px" width="600px" height="313.5px" viewBox="0 0 600 313.5" xml:space="preserve">
<rect x="2.306" fill="#FAFAFA" width="598.194" height="313.5"></rect>
<g>
	<g>
		<g>
			<defs>
				<rect id="SVGID_1_" x="3.682" y="32.239" width="475.965" height="88.552"></rect>
			</defs>
			<clipPath id="SVGID_2_">
				<use xlink:href="#SVGID_1_" overflow="visible"></use>
			</clipPath>
			<g clip-path="url(#SVGID_2_)">
				<g>
					<defs>
						<rect id="SVGID_3_" x="-62.463" y="-33.42" width="608.254" height="219.868"></rect>
					</defs>
					<clipPath id="SVGID_4_">
						<use xlink:href="#SVGID_3_" overflow="visible"></use>
					</clipPath>
					<path clip-path="url(#SVGID_4_)" d="M477.627,48.939c-1.342,1.351-2.969,2.026-4.881,2.026c-1.908,0-3.531-0.675-4.871-2.026       c-1.334-1.342-1.998-2.971-1.998-4.882c0-1.895,0.674-3.512,2.02-4.857c1.34-1.339,2.955-2.005,4.852-2.005       c1.91,0,3.537,0.667,4.881,2.005c1.35,1.336,2.02,2.957,2.02,4.857C479.646,45.962,478.977,47.59,477.627,48.939        M468.553,39.878c-1.156,1.155-1.736,2.551-1.736,4.188c0,1.647,0.578,3.052,1.727,4.215c1.156,1.161,2.561,1.74,4.213,1.74       c1.654,0,3.059-0.58,4.217-1.74c1.156-1.163,1.73-2.568,1.73-4.215c0-1.637-0.574-3.032-1.73-4.188       c-1.164-1.161-2.566-1.743-4.217-1.743C471.117,38.136,469.717,38.718,468.553,39.878 M472.621,40.252       c0.945,0,1.639,0.089,2.074,0.271c0.787,0.328,1.18,0.968,1.18,1.922c0,0.676-0.242,1.177-0.736,1.497       c-0.262,0.168-0.625,0.29-1.088,0.365c0.584,0.096,1.012,0.34,1.279,0.741c0.271,0.4,0.4,0.792,0.4,1.172v0.552       c0,0.176,0.008,0.364,0.021,0.563c0.016,0.199,0.037,0.331,0.072,0.393l0.051,0.094h-1.246c-0.008-0.026-0.016-0.05-0.02-0.073       c-0.006-0.026-0.014-0.055-0.021-0.086l-0.025-0.243v-0.598c0-0.872-0.246-1.448-0.729-1.729       c-0.289-0.161-0.793-0.243-1.516-0.243h-1.072v2.971h-1.287v-7.57H472.621z M474.074,41.473       c-0.346-0.187-0.895-0.279-1.656-0.279h-1.172v2.715h1.24c0.578,0,1.014-0.057,1.305-0.167       c0.533-0.206,0.799-0.595,0.799-1.171C474.59,42.023,474.418,41.66,474.074,41.473"></path>
				</g>
			</g>
		</g>
		<rect x="446.529" y="17.667" fill="#FAFAFA" width="155" height="113.333"></rect>
		<rect x="845.529" y="584" fill="#FAFAFA" width="4" height="5"></rect>
		<g>
			<g>
				<defs>
					<rect id="SVGID_5_" x="3" y="21.541" width="573.777" height="270.459"></rect>
				</defs>
				<clipPath id="SVGID_6_">
					<use xlink:href="#SVGID_5_" overflow="visible"></use>
				</clipPath>
				<path clip-path="url(#SVGID_6_)" d="M347.877,165.061c-3.508,1.125-9.021,2.467-16.531,4.024      c-7.516,1.556-12.441,3.071-14.779,4.542c-3.6,2.423-5.398,5.495-5.398,9.215c0,3.635,1.418,6.771,4.252,9.411      c2.834,2.642,6.455,3.958,10.863,3.958c4.947,0,9.627-1.514,14.035-4.542c3.24-2.422,5.4-5.321,6.48-8.696      c0.719-2.25,1.078-6.49,1.078-12.721V165.061L347.877,165.061z M311.57,143.903l-24.698-4.284      c2.787-9.604,7.558-16.698,14.305-21.286c6.748-4.586,16.781-6.879,30.098-6.879c12.146,0,21.189,1.385,27.129,4.154      c5.938,2.77,10.1,6.274,12.482,10.514c2.383,4.24,3.578,12.028,3.578,23.362l-0.271,30.502c0,8.654,0.451,15.057,1.354,19.209      c0.896,4.154,2.516,8.566,4.855,13.24h-26.855c-0.723-1.729-1.576-4.283-2.564-7.656c-0.451-1.561-0.766-2.598-0.945-3.117      c-4.68,4.329-9.648,7.572-14.914,9.736c-5.264,2.16-10.91,3.244-16.938,3.244c-10.527,0-18.851-2.746-24.969-8.242      c-6.119-5.494-9.178-12.479-9.178-20.963c0-5.537,1.395-10.49,4.184-14.861c2.789-4.368,6.682-7.723,11.676-10.059      c4.992-2.337,12.166-4.369,21.527-6.102c12.686-2.249,21.502-4.368,26.451-6.36v-2.596c0-5.018-1.279-8.608-3.846-10.772      c-2.562-2.163-7.445-3.245-14.645-3.245c-4.857,0-8.637,0.931-11.336,2.791C315.352,136.096,313.191,139.319,311.57,143.903"></path>
			</g>
			<g>
				<defs>
					<rect id="SVGID_7_" x="3" y="21.541" width="573.777" height="270.459"></rect>
				</defs>
				<clipPath id="SVGID_8_">
					<use xlink:href="#SVGID_7_" overflow="visible"></use>
				</clipPath>
				<path clip-path="url(#SVGID_8_)" d="M537.502,212.438h-27.129v-98.646h25.24v14.019c4.318-6.663,8.188-11.053,11.605-13.174      c3.418-2.12,7.332-3.18,11.744-3.18c6.205,0,12.146,1.645,17.814,4.932l-8.369,22.844c-4.588-2.854-8.863-4.283-12.818-4.283      c-3.781,0-6.977,0.995-9.586,2.985c-2.607,1.992-4.68,5.625-6.207,10.903c-1.529,5.278-2.295,16.312-2.295,33.099V212.438      L537.502,212.438z"></path>
			</g>
			<g>
				<defs>
					<rect id="SVGID_9_" x="3" y="21.541" width="573.777" height="270.459"></rect>
				</defs>
				<clipPath id="SVGID_10_">
					<use xlink:href="#SVGID_9_" overflow="visible"></use>
				</clipPath>
				<path clip-path="url(#SVGID_10_)" d="M427.506,137.673c3.869-4.154,8.729-6.229,14.576-6.229c5.578,0,10.303,1.967,14.172,5.904      c3.865,3.939,5.893,9.714,6.074,17.329h-40.625C421.703,147.495,423.635,141.827,427.506,137.673 M445.713,195.781      c-0.016-0.047-0.033-0.092-0.051-0.137c-1.621-0.135-3.123-0.338-4.467-0.57c-0.717-0.064-1.416-0.172-2.104-0.301      c-5.227-1.323-9.887-3.971-13.262-8.569c-2.857-4.052-4.385-9.226-4.531-15.563h68.291c0-19.988-4.363-34.849-13.09-44.583      c-8.729-9.736-20.74-14.603-36.037-14.603c-13.588,0-24.812,4.652-33.674,13.953c-8.863,9.303-13.295,22.129-13.295,38.484      c0,13.674,3.377,25.008,10.123,34.008c2.803,3.66,6.111,6.707,9.912,9.166l-0.008,0.015c0,0,25.297,18.053,65.816,3.465v-21.334      C472.74,191.802,458.535,196.602,445.713,195.781"></path>
			</g>
			<g>
				<defs>
					<rect id="SVGID_11_" x="3" y="21.541" width="573.777" height="270.459"></rect>
				</defs>
				<clipPath id="SVGID_12_">
					<use xlink:href="#SVGID_11_" overflow="visible"></use>
				</clipPath>
				<path clip-path="url(#SVGID_12_)" d="M33.446,268.575c0.28-1.448,0.261-3.1,0.877-4.455c0.997-2.193,2.565-4.108,4.016-6.014      c2.953-3.874,7.046-8.359,7.208-13.487c0.139-4.398-0.498-8.854-1.18-13.186c-0.761-4.834-1.669-9.656-2.844-14.406      c-0.546-2.204-0.959-6.502-3.066-7.7c-3.496-1.987-5.774-6.192-7.619-9.642c-0.718,2.14-1.439,4.342-2.119,6.513      c2.199,3.114,4.128,6.459,5.68,9.875c3.692,8.122,4.498,16.997,4.759,25.839c0.221,7.463-0.544,16.159-6.774,21.255      c-0.721,0.59-1.478,1.211-2.242,1.859c0.362,3.083,0.825,6.177,1.415,9.163C32.436,272.465,33.061,270.565,33.446,268.575"></path>
			</g>
			<g>
				<defs>
					<rect id="SVGID_13_" x="3" y="21.541" width="573.777" height="270.459"></rect>
				</defs>
				<clipPath id="SVGID_14_">
					<use xlink:href="#SVGID_13_" overflow="visible"></use>
				</clipPath>
				<path clip-path="url(#SVGID_14_)" d="M34.355,120.707c-0.564-1.394-2.371-0.933-3.518-0.711      c-1.378,0.267-2.725,0.486-4.125,0.579c-2.418,0.161-4.359,1.788-6.278,3.103c-0.29,0.199-0.582,0.383-0.874,0.556      c3.919,4.45,7.915,8.785,11.215,12.395c1.194-2.832,2.078-5.708,2.715-8.211C34.042,126.246,35.258,122.939,34.355,120.707"></path>
			</g>
			<g>
				<defs>
					<rect id="SVGID_15_" x="3" y="21.541" width="573.777" height="270.459"></rect>
				</defs>
				<clipPath id="SVGID_16_">
					<use xlink:href="#SVGID_15_" overflow="visible"></use>
				</clipPath>
				<path clip-path="url(#SVGID_16_)" d="M32.711,236.874c-0.59-4.988-2.019-9.967-4.007-14.755      c-2.545,7.477-6.167,16.906-8.739,18.591c0,0,4.874-1.009,9.079-6.392c0,0-0.47,9.854,0.297,21.781      C31.877,249.99,33.476,243.331,32.711,236.874"></path>
			</g>
			<g>
				<defs>
					<rect id="SVGID_17_" x="3" y="21.541" width="573.777" height="270.459"></rect>
				</defs>
				<clipPath id="SVGID_18_">
					<use xlink:href="#SVGID_17_" overflow="visible"></use>
				</clipPath>
				<path clip-path="url(#SVGID_18_)" d="M35.974,256.467c1.73-4.048,2.172-8.484,2.096-12.853      c-0.158-9.062-0.719-18.677-4.645-26.972c-0.57-1.207-1.176-2.404-1.817-3.59c-0.31,1.036-1.167,3.86-2.323,7.338      c2.696,6.041,4.522,12.433,4.722,18.687c0.212,6.582-1.654,13.424-4.485,19.581c0.128,1.649,0.284,3.326,0.466,5.014      C32.376,261.607,34.666,259.529,35.974,256.467"></path>
			</g>
			<g>
				<defs>
					<rect id="SVGID_19_" x="3" y="21.541" width="573.777" height="270.459"></rect>
				</defs>
				<clipPath id="SVGID_20_">
					<use xlink:href="#SVGID_19_" overflow="visible"></use>
				</clipPath>
				<path clip-path="url(#SVGID_20_)" d="M26.841,218.014c-0.309-0.627-0.625-1.252-0.951-1.869      c-0.651,2.695-1.052,4.945-1.052,6.403C24.838,222.548,25.613,220.348,26.841,218.014"></path>
			</g>
			<g>
				<defs>
					<rect id="SVGID_21_" x="3" y="21.541" width="573.777" height="270.459"></rect>
				</defs>
				<clipPath id="SVGID_22_">
					<use xlink:href="#SVGID_21_" overflow="visible"></use>
				</clipPath>
				<path clip-path="url(#SVGID_22_)" d="M83.355,156.669c0.188,6.403,5.794,10.581,9.136,15.479      c7.161,10.494,11.29,24.121,25.722,26.252c6.551,0.968,12.369-1.25,16.761-6.17c4.292-4.812,7.782-10.537,11.538-15.767      c2.517-3.504,5.044-7.214,6.497-11.312c0.965-2.715,1.44-5.612,2.5-8.29c1.276-3.226,4.147-5.287,7.584-3.226      c2.571,1.543,4.417,4.393,6.059,6.823c2.744,4.063,5.207,8.313,7.664,12.558c2.482,4.289,4.917,8.619,7.599,12.789      c1.027,1.601,2.273,3.944,3.824,5.658c0.008-0.023,0.012-0.039,0.012-0.039l-0.002-0.004c8.75-4.205,15.857-8.732,21.599-13.24      c0.429-1.277,0.832-2.564,1.199-3.863c0.15-0.521,0.267-2.201,0.946-2.414c2.177-0.68,3.651-2.797,2.908-5.086      c-1.135-3.498-4.144-5.851-6.723-8.271c-2.147-2.016-4.074-4.279-5.608-6.8c-2.707-4.448-4.701-9.584-5.725-14.84      c-1.139-0.324-2.286-0.686-3.428-1.077c-0.252,5.055-0.336,10.289,0.857,15.071c0.608,2.432,1.758,4.022,3.453,5.788      c5.783,6.026,6.801,16.965,1.921,23.739c-2.13,2.956-6.043,5.203-9.767,4.271c-5.513-1.381-9.061-8.074-11.546-12.682      c-5.355-9.926-7.067-20.355-8.908-31.299c-0.119-0.699-0.208-3.023-1.28-2.941c-2.406,0.187-4.88,2.035-6.819,3.334      c-5.627,3.771-10.516,8.504-16.075,12.327c-1.788,1.229-4.345,2.104-5.407,4.122c-2.375,4.513-3.019,10.263-4.166,15.158      c-1.434,6.105-2.71,18.568-10.986,19.322c-10.208,0.928-18.359-5.857-24.291-13.354c-8.34-10.539-14.483-22.568-21.334-34.076      c-1.903-3.198-2.75-7.933-3.522-11.549c-0.635-2.975-1.136-5.995-1.308-9.035c-0.281-4.953,0.062-10.002,1.531-14.765      c0.978-3.174,2.353-6.205,4.142-9.005c1.42-2.223,4.267-4.868,0.527-6.69c-3.066-1.494-6.123-1.321-7.697,1.963      c-1.113,2.324-1.911,4.812-3.172,7.066c-1.333,2.382-2.895,4.123-5.29,5.449c-2.252,1.248-4.893,2.492-4.607,5.495      c0.197,2.061,0.696,3.942,0.627,6.031c-0.068,2.106-0.283,4.207-0.606,6.289c-0.803,5.158-2,10.442-4.239,15.185      c-0.884,1.875-1.925,3.896-3.494,5.307c-1.954,1.756-4.106,3.156-5.9,5.12c-1.813,1.987-3.512,4.098-5.079,6.299      c-0.134,2.521-0.513,5.271-1.012,8.326c0,0-0.244,1.125-0.649,3.084v0.002c0,0-0.895,4.08-2.117,10.814      c-0.214,1.158-0.436,2.371-0.66,3.624c-0.189,0.502-1.109,2.96-2.356,6.438c0.248,1.258,0.549,2.5,0.927,3.717      c0.717,2.295,1.677,4.979,3.639,6.524c2.202,1.738,4.229,3.267,6.02,5.484c3.265,4.041,6.278,9.903,6.068,15.251      c-0.095,2.443-0.761,4.74-0.656,7.221c0.128,3.016,0.514,6.01,0.93,8.995c0.613,4.392,1.874,9.365,0.965,13.785      c-0.707,3.44-1.542,6.858-2.709,10.176c-3.042,8.641-7.952,16.726-15.533,21.822c0.757,2.269,1.629,4.366,2.629,6.225      c1.425-1.372,2.792-2.806,4.052-4.332c8.337-10.103,12.444-22.544,13.364-35.499c0.326-4.599,0.313-9.197,0.285-13.805      c-0.033-5.479,1.284-10.848,0.774-16.329c-0.938-10.058-5.764-17.829-11.858-25.515c-1.945-2.451-0.541-5.383-0.522-8.202      c0.042-6.15-2.507-11.593,0.107-17.572c0.951-2.174,2.291-4.088,3.407-6.167c0.824-1.534,0.537-2.51,0.758-4.073      c0.584-4.112,4.057-8.108,6.288-11.439c1.549-2.314,3.143-4.619,4.507-7.049c0.993-1.77,1.414-3.657,2.265-5.447      c1.268-2.668,5.179-6.245,8.458-4.967c1.44,0.56,0.764,2.31,0.98,3.439c0.514,2.672,1.746,5.144,3.207,7.421      c2.73,4.255,6.054,8.256,9.752,11.713C84.105,153.135,83.287,154.361,83.355,156.669"></path>
			</g>
			<g>
				<defs>
					<rect id="SVGID_23_" x="3" y="21.541" width="573.777" height="270.459"></rect>
				</defs>
				<clipPath id="SVGID_24_">
					<use xlink:href="#SVGID_23_" overflow="visible"></use>
				</clipPath>
				<path clip-path="url(#SVGID_24_)" d="M47.224,211.771c-1.604-3.127-3.626-6.184-6.33-8.473      c-1.606-1.361-3.418-2.275-4.586-4.089c-1.333-2.067-2.262-4.435-2.913-6.933c-0.65,1.836-1.355,3.863-2.074,5.978      c0.71,1.337,1.463,2.647,2.266,3.921c1.319,2.09,2.866,4.715,5.086,5.977c1.037,0.591,1.399,0.683,1.888,1.785      c1.474,3.336,2.18,7.121,2.939,10.664c1.06,4.95,1.964,9.942,2.58,14.969c0.431,3.525,1.173,7.617,0.368,11.146      c-1.238,5.421-5.66,9.823-8.814,14.199c-1.334,1.853-2.405,3.495-2.732,5.775c-0.282,1.97-0.665,3.954-1.363,5.823      c-0.452,1.206-0.993,2.336-1.625,3.38c0.455,2.099,0.976,4.133,1.575,6.057c8.682-5.996,13.664-15.918,16.294-25.957      c0.908-3.474,1.613-6.714,1.274-10.329c-0.544-5.803-1.853-11.568-2-17.405c-0.062-2.462,0.684-4.809,0.655-7.221      C49.673,217.822,48.686,214.621,47.224,211.771"></path>
			</g>
			<g>
				<defs>
					<rect id="SVGID_25_" x="3" y="21.541" width="573.777" height="270.459"></rect>
				</defs>
				<clipPath id="SVGID_26_">
					<use xlink:href="#SVGID_25_" overflow="visible"></use>
				</clipPath>
				<path clip-path="url(#SVGID_26_)" d="M48.475,88.978c1.059-0.162,2.714-0.138,3.619-0.8c0.859-0.63-0.675-2.695-1.039-3.263      c-1.628-2.543-3.99-6.021-7.463-5.785c-1.984,0.134-3.734,1.035-5.473,1.929c1.802,4.405,3.905,7.432,3.756,9.591      C43.993,89.878,46.19,89.326,48.475,88.978"></path>
			</g>
			<g>
				<defs>
					<rect id="SVGID_27_" x="3" y="21.541" width="573.777" height="270.459"></rect>
				</defs>
				<clipPath id="SVGID_28_">
					<use xlink:href="#SVGID_27_" overflow="visible"></use>
				</clipPath>
				<path clip-path="url(#SVGID_28_)" d="M203.146,150.531c2.004,3.291,4.448,5.88,7.25,8.479c2.044,1.896,4.023,3.928,5.212,6.484      c1.061,2.285,0.723,4.889-1.346,6.447c-0.491,0.371-1.03,0.685-1.605,0.912c-0.021,0.061-0.095,0.22-0.194,0.582      c-0.251,0.922-0.513,1.844-0.795,2.758c-0.07,0.229-0.144,0.465-0.215,0.699c15.05-12.354,19.989-24.318,20.443-28.845      c0.312-3.13-6.59-5.512-13.651-7.123c-5.075-0.813-10.359-1.674-14.628-2.488c-1.533-0.292-2.937-0.578-4.149-0.853      c-0.429-0.098-0.863-0.206-1.298-0.318C199.127,141.911,200.683,146.483,203.146,150.531"></path>
			</g>
			<g>
				<defs>
					<rect id="SVGID_29_" x="3" y="21.541" width="573.777" height="270.459"></rect>
				</defs>
				<clipPath id="SVGID_30_">
					<use xlink:href="#SVGID_29_" overflow="visible"></use>
				</clipPath>
				<path clip-path="url(#SVGID_30_)" d="M27.569,102.567c-3.617,4.376-7.264,9.118-11.914,12.474      c-0.802,0.578-1.634,1.124-2.559,1.489c-0.028,0.011-0.05,0.02-0.076,0.029c1.863,2.282,3.866,4.626,5.901,6.949      c1.406-0.858,2.77-2.15,3.875-2.768c1.707-0.954,3.147-1.134,5.034-1.363c1.809-0.219,5.391-1.703,6.935-0.075      c2.602,2.747-0.119,9.517-1.017,12.335c-0.584,1.831-1.305,3.839-2.187,5.853c1.772,1.941,3.308,3.643,4.476,5      c2.421-4.145,4.701-8.391,6.417-12.832c1.239-3.206,2.755-7.345,1.348-10.748c-1.394-3.37-5.028-4.383-7.773-6.345      c-1.686-1.206-3.216-2.959-1.699-4.985c3.418-4.567,9.625-7.146,14.228-10.246c3.547-2.39,9.158-5.74,9.422-10.621      c0.238-4.381-1.193-7.718-3.884-11.119c-1.672-2.114-5.522-5.643-4.511-8.702c1.113-3.367,7.819-2.695,10.308-2      c5.333,1.489,9.876,4.845,14.236,8.132c2.162,1.63,4.298,3.342,6.612,4.755c1.509,0.921,3.736,2.383,5.615,1.866      c4.301-1.182,7.143-5.643,7.934-9.847c0.134-0.714,1.222-0.412,1.088,0.3c-0.63,3.352-2.485,6.582-5.094,8.758      c-3.178,2.654-6.332,2.203-9.649,0.179c-4.66-2.843-8.702-6.582-13.34-9.464c-2.392-1.487-4.94-2.927-7.702-3.592      c-2.393-0.576-6.159-1.031-8.298,0.561c-2.912,2.164,4.427,9.114,5.697,11.108c1.716,2.695,2.504,6.19,2.087,9.398      c-0.468,3.596-3.074,6.173-5.833,8.305c-5.372,4.151-12.134,6.923-16.968,11.715c-1.288,1.275-2.079,2.587-0.443,3.939      c1.515,1.251,3.313,2.064,4.976,3.088c2.325,1.432,4.027,3.388,4.507,6.131c0.643,3.671-0.869,7.576-2.247,10.893      c-1.759,4.234-3.952,8.294-6.269,12.272c0.064,0.076,0.129,0.154,0.189,0.227c1.289,1.573,2.209,3.191,2.849,4.895      c3.646-6.521,6.344-13.69,8.554-20.657c1.104-3.482,2.245-7.068,2.741-10.701c0.425-3.111-2.935-4.866-3.613-7.898      c-1.173-5.239,5.657-7.103,8.928-9.182c3.296-2.094,4.767-4.304,5.204-8.157c0.482-4.239,1.59-17.958,9.2-14.542      c1.316,0.591,1.719,1.414,2.502,2.503c1.256,1.747,4.225,2.49,6.133,3.159c2.727,0.955,5.502,1.777,8.211,2.783      c1.873,0.694,3.513,1.241,4.762,2.844c1.729,2.219,2.816,4.778,0.356,6.857c-4.292,3.629-8.197,6.557-10.578,11.921      c-5.779,13.022-1.494,26.932,5.8,38.413c6.404,10.082,15.205,18.5,19.496,29.841c0.951,2.515,1.985,4.775,3.935,6.693      c1.991,1.961,5.759,4.189,8.584,4.622c2.146,0.328,3.057-1.062,3.466-2.981c1.048-4.92,0.874-9.995,2.358-14.85      c1.655-5.412,3.897-11.578,7.373-16.125c2.692-3.523,6.133-5.448,9.981-7.488c4.168-2.209,7.837-5.432,11.368-8.522      c5.026-4.4,9.887-9.006,14.601-13.744c-1.895-1.602-3.822-3.413-5.462-5.198c-0.562,0.565-1.121,1.116-1.633,1.652      c-3.036,3.185-6.145,6.302-9.311,9.357c-2.475,2.386-4.938,4.86-7.639,6.994c-1.643,1.296-3.73,1.791-5.676,2.436      c-9.492,3.142-10.532,13.026-12.565,21.568c-1.516,6.372-3.567,14.392-9.105,18.59c-1.002,0.759-3.252,2.615-4.526,1.675      c-1.068-0.789-1.423-2.669-1.763-3.851c-0.694-2.407-1.292-4.932-2.446-7.172c-1.353-2.627-3.47-3.783-5.427-5.824      c-1.949-2.033-3.594-4.333-5.085-6.716c-2.19-3.499-4.179-7.117-6.183-10.725c-1.794-3.232-3.84-6.395-5.355-9.772      c-5.169-11.521-3.694-24.14,4.793-33.716c5.156-5.82,10.875-11.115,10.62-19.558c-0.088-2.93-0.693-6.12-2.244-8.665      c-0.125-0.206-0.095-0.401,0.005-0.554c-3.501-3.643-8.351-9.028-13.501-14.89c-0.417,4.315-2.794,8.755-7.641,8.805      c-5.14,0.055-10.344-2.764-13.748-6.51c-2.635-2.899-4.106-6.371-6.345-9.513c-0.729-1.022-1.254-0.633-2.273-1.032      c-1.21-0.475-2.343-1.126-3.465-1.778c-3.642-2.115-7.25-4.445-11.185-5.985c-2.385-0.934-5.926-1.997-8.057-0.545      c-0.374,2.543-0.56,5.215-0.598,7.918c-0.101,0.359-0.204,0.725-0.309,1.097c0.081,0.079,0.162,0.158,0.254,0.23      c1.219,0.963,2.747,1.325,4.15,1.929c7.708,3.323,1.872,11.394-2.386,16.065c0.64,3.556,1.346,6.492,1.915,8.346      c0.213,0.694,0.444,1.357,0.683,1.996c1.26-0.646,2.528-1.273,3.84-1.617c4.673-1.229,7.848,1.859,10.232,5.585      c0.749,1.169,2.86,4.082,0.901,5.224c-2.336,1.362-5.809,1.102-8.385,1.852c-0.996,0.291-1.967,0.64-2.917,1.03      c-0.226,0.298-0.527,0.578-0.926,0.837c-0.5,0.325-1.223,0.518-2.114,0.609C34.196,95.739,30.59,98.911,27.569,102.567"></path>
			</g>
			<g>
				<defs>
					<rect id="SVGID_31_" x="3" y="21.541" width="573.777" height="270.459"></rect>
				</defs>
				<clipPath id="SVGID_32_">
					<use xlink:href="#SVGID_31_" overflow="visible"></use>
				</clipPath>
				<path clip-path="url(#SVGID_32_)" d="M31.421,212.719c-0.964-1.759-2.005-3.482-3.13-5.146      c-0.742,2.411-1.421,4.753-1.978,6.884c0.422,0.76,0.831,1.525,1.229,2.301C28.64,214.917,29.985,213.225,31.421,212.719"></path>
			</g>
			<g>
				<defs>
					<rect id="SVGID_33_" x="3" y="21.541" width="573.777" height="270.459"></rect>
				</defs>
				<clipPath id="SVGID_34_">
					<use xlink:href="#SVGID_33_" overflow="visible"></use>
				</clipPath>
				<path clip-path="url(#SVGID_34_)" d="M90.472,253.352c0.272-0.224,0.516-0.44,0.738-0.66c0.518-0.942,1.035-1.883,1.551-2.814      c0.127-0.991-0.099-2.091-0.626-3.412c-1.245-3.119-2.51-6.188-3.617-9.359c-1.935-5.539-5.138-10.44-7.037-15.989      c-0.715-2.091-3.538-6.636-1.98-8.824c2.038-2.866,10.112,2.284,11.984,3.085c4.625,1.979,9.986,2.914,14.343,5.451      c2.204,1.283,4.062,2.968,5.626,4.904c3.786,1.535,6.26,7.293,7.302,8.336c1.267,1.268,4.221,0.211,5.278,1.056      c1.055,0.845,3.799,5.065,4.854,7.177c0.123,0.245,0.404,0.686,0.809,1.268c4.511,3.339,10.86,6.582,15.084,1.675      c2.244-2.604,3.304-6.153,3.763-9.513c0.303-2.221-0.417-4.709,0.204-6.838c0.9-3.078,2.727-6.315,6.131-6.941      c4.433-0.816,7.204,3.393,8.099,7.084c0.559,2.305,0.625,5.148,1.791,7.254c0.968,1.747,1.936,3.382,2.666,5.26      c1.779,4.562,2.913,10.775,7.408,13.446c5.195,3.085,11.086,5.382,16.969,6.734c7.163,1.648,13.544,1.314,19.93-2.56      c2.933-1.779,6.392-4.695,10.023-4.139c-2.802-3.588-5.37-6.989-7.729-10.213c0.009,0.137-0.042,0.279-0.177,0.402      c-2.777,2.522-3.455,6.586-7.088,8.355c-1.575,0.768-3.543,0.554-5.072-0.219c-2.978-1.5-5.382-3.856-8.46-5.25      c-3.219-1.455-6.573-2.43-9.956-3.414c-1.809-0.526-4.002-0.982-5.551-2.131c-2.549-1.893-1.791-5.674-1.508-8.433      c0.459-4.456,1.593-9.192,1.176-13.683c-0.181-1.932-1.047-1.67-2.178-2.842c-1.283-1.332-2.218-2.982-3.072-4.608      c-2.572-4.897-4.539-10.104-7.21-14.95c-0.839-1.521-1.983-4-4.08-3.896c-2.029,0.103-3.854,1.619-5.269,2.938      c-8.882,8.287-14.843,23.282-28.241,25.263c-2.587,0.381-6.091,0.438-7.904-1.832c-2.669-3.338-4.874-6.43-8.909-8.315      c-5.908-2.761-13.021-1.872-18.669-5.074c-3.198-1.813-4.346-4.688-5.136-8.129c-1.547-6.739-4.019-12.698-8.379-18.151      c-3.086-3.861-7.688-9.545-12.838-10.617c-3.272-0.682,0.807,18.404,1.205,20.209c1.609,7.301,4.113,14.668,5.048,22.094      c0.792,6.295,2.903,12.275,4.77,18.312c0.681,2.201,1.911,4.428,2.253,6.719c0.444,2.973-0.245,6.119-0.703,9.05      c-1.146,7.315-2.119,14.77-4.439,21.829c-1.059,3.221-2.466,7.501-4.734,10.728c1.877,2.297,2.91,5.347,4.036,5.769      c0.786,0.296,7.466-12.387,14.916-26.118C88.21,256.639,88.943,254.596,90.472,253.352"></path>
			</g>
			<g>
				<defs>
					<rect id="SVGID_35_" x="3" y="21.541" width="573.777" height="270.459"></rect>
				</defs>
				<clipPath id="SVGID_36_">
					<use xlink:href="#SVGID_35_" overflow="visible"></use>
				</clipPath>
				<path clip-path="url(#SVGID_36_)" d="M105.259,221.8c-4.468-2.426-9.689-3.397-14.343-5.45      c-2.252-0.994-4.454-2.186-6.791-2.971c-0.93-0.312-2.379-0.972-3.375-0.617c-1.37,0.489,0.259,3.865,0.578,4.696      c0.966,2.522,1.69,5.179,2.857,7.615c1.086,2.271,2.401,4.43,3.436,6.725c1.522,3.374,2.5,6.938,3.924,10.353      c0.761,1.824,1.845,3.795,2.295,5.789c6.64-11.912,12.823-22.18,14.997-22.526c0.289-0.047,0.57-0.062,0.848-0.056      C108.43,223.958,106.982,222.736,105.259,221.8"></path>
			</g>
			<g>
				<defs>
					<rect id="SVGID_37_" x="3" y="21.541" width="573.777" height="270.459"></rect>
				</defs>
				<clipPath id="SVGID_38_">
					<use xlink:href="#SVGID_37_" overflow="visible"></use>
				</clipPath>
				<path clip-path="url(#SVGID_38_)" d="M201.528,263.902c-8.321,0.416-17.021-2.636-24.356-6.356      c-1.619-0.821-3.514-1.664-4.843-2.94c-1.51-1.451-2.344-3.475-3.145-5.371c-1.111-2.631-1.985-5.358-3.079-7.998      c-0.761-1.84-2.102-3.484-2.719-5.354c-1.378-4.177-1.295-13.335-7.806-12.865c-3.98,0.285-5.848,4.81-5.797,8.156      c0.073,4.768-0.475,9.971-3.451,13.926c-4.041,5.369-9.756,4-14.688,1.076c4.409,5.629,13.155,15.341,20.253,17.865      c9.499,3.377,12.664-8.021,15.831-5.698c3.166,2.321,8.232,11.82,12.875,12.031c4.645,0.21,4.645-1.266,7.177-1.478      c2.534-0.212,2.534,0.843,5.066,2.32c1.024,0.599,3.944-0.613,8.007-1.689c2.213-1.015,4.048-2.088,4.446-2.9      c1.038-2.124,0.634-1.266,1.108-3.642c0.005-0.021,0.021-0.037,0.029-0.058C204.858,263.461,203.224,263.816,201.528,263.902"></path>
			</g>
			<g>
				<defs>
					<rect id="SVGID_39_" x="3" y="21.541" width="573.777" height="270.459"></rect>
				</defs>
				<clipPath id="SVGID_40_">
					<use xlink:href="#SVGID_39_" overflow="visible"></use>
				</clipPath>
				<path clip-path="url(#SVGID_40_)" d="M158.36,135.21c-3.287,2.968-6.627,5.917-10.208,8.528      c-3.084,2.248-6.645,3.618-9.729,5.831c-3.728,2.675-6.036,6.483-7.864,10.625c-2.458,5.564-4.397,11.064-5.058,17.132      c-0.544,4.99-0.545,13.251-7.812,10.117c-3.708-1.601-7.447-3.782-9.483-7.397c-1.299-2.308-1.983-4.907-3.101-7.301      C99.154,160,87.998,150.634,82.342,137.649c-4.603-10.568-5.985-22.927,0.184-33.23c1.479-2.469,3.258-4.731,5.483-6.575      c1.377-1.143,3-2.089,4.267-3.351c1.831-1.827,0.346-3.883-1.021-5.552c-1.466-1.789-4.795-2.383-6.903-3.08      c-2.708-0.896-5.433-1.751-8.066-2.85c-1.258-0.524-2.905-1.168-3.737-2.326c-0.955-1.328-1.72-2.708-3.669-2.565      c-2.918,0.212-4.362,3.409-4.94,5.9c-0.901,3.885-0.425,8.667-2.165,12.321c-1.826,3.839-6.496,5.831-10.081,7.578      c-5.227,2.548-2.549,6.982-0.036,10.139c0.564,0.708,0.77,1.247,0.704,2.143c-0.27,3.635-1.42,7.281-2.498,10.738      c-2.429,7.796-5.41,15.806-9.565,23.004c0.5,1.809,0.718,3.726,0.726,5.796c1.474-1.985,3.061-3.883,4.764-5.619      c1.933-1.971,4.622-3.41,6.299-5.576c1.695-2.19,2.837-4.809,3.726-7.415c1.856-5.443,3.153-11.307,3.341-17.07      c0.12-3.67-2.021-8.06,1.184-10.865c2.337-2.045,5.4-2.707,7.202-5.43c1.489-2.25,2.431-4.734,3.498-7.197      c1.692-3.902,4.264-6.331,8.774-4.499c2.439,0.991,4.866,3,3.114,5.703c-1.309,2.021-2.708,3.961-3.796,6.121      c-5.076,10.083-4.604,21.831-1.605,32.475c1.169,4.146,2.646,7.847,4.8,11.57c1.626,2.809,3.231,5.63,4.86,8.438      c3.521,6.068,7.097,12.141,11.221,17.826c3.634,5.011,7.798,10.386,13.216,13.59c3.653,2.159,9.367,3.977,13.668,3.034      c4.036-0.888,5.61-4.892,6.721-8.466c1.943-6.254,3.116-12.721,4.753-19.057c0.648-2.506,1.205-6.057,3.313-7.862      c2.094-1.794,4.709-2.913,6.85-4.698c2.164-1.802,20.973-18.504,23.022-12.768c1.124,3.145,1.144,6.805,1.694,10.077      c0.994,5.917,2.428,11.798,4.757,17.342c1.573,3.737,3.449,7.377,5.755,10.72c1.878,2.724,4.054,6.508,7.529,7.379      c5.853,1.465,10.492-4.029,11.528-9.288c0.926-4.702,0.125-10.311-2.476-14.437c-1-1.588-2.439-2.744-3.586-4.208      c-1.513-1.932-2.062-4.367-2.401-6.748c-0.626-4.389-0.589-8.894-0.409-13.355c-8.389-3.005-16.114-7.252-16.114-7.252      c-1.44-0.633-3.724-2.196-6.15-4.173C166.268,127.855,162.364,131.594,158.36,135.21"></path>
			</g>
			<g>
				<defs>
					<rect id="SVGID_41_" x="3" y="21.541" width="573.777" height="270.459"></rect>
				</defs>
				<clipPath id="SVGID_42_">
					<use xlink:href="#SVGID_41_" overflow="visible"></use>
				</clipPath>
				<path clip-path="url(#SVGID_42_)" d="M222.867,256.434c-0.077,0.008-0.16,0.002-0.25-0.033      c-3.516-1.286-6.902,1.681-9.732,3.396c-1.675,1.016-3.417,1.958-5.234,2.686c4.327-0.104,18.478,4.797,18.478,4.797      c3.306,0.423,5.534,1.112,7.046,1.848C229.437,264.658,226.015,260.436,222.867,256.434"></path>
			</g>
			<g>
				<defs>
					<rect id="SVGID_43_" x="3" y="21.541" width="573.777" height="270.459"></rect>
				</defs>
				<clipPath id="SVGID_44_">
					<use xlink:href="#SVGID_43_" overflow="visible"></use>
				</clipPath>
				<path clip-path="url(#SVGID_44_)" d="M103.094,87.664c-1.19,5.024-4.032,9.218-7.687,12.801      c-4.18,4.095-7.82,8.991-9.381,14.717c-1.359,4.983-1.401,10.222,0.017,15.206c1.465,5.15,4.225,9.578,6.804,14.223      c2.69,4.845,5.256,9.858,8.507,14.36c1.296,1.794,2.704,3.652,4.472,5.021c1.269,0.98,2.471,1.845,3.338,3.236      c1.321,2.114,2.137,4.467,2.828,6.853c0.321,1.11,0.816,4.931,2.038,5.453c1.215,0.519,4.579-3.011,5.173-3.732      c7.849-9.561,5.333-23.495,12.451-33.267c1.877-2.578,4.542-4.116,7.526-5.078c3.271-1.055,5.483-2.297,8.038-4.634      c3.932-3.598,7.743-7.335,11.469-11.146c1.321-1.354,2.93-2.78,4.397-4.301c-1.433-1.637-2.582-3.223-3.187-4.569      c-1.097-2.442-5.671-8.074-10.667-13.826c-1.593,1.84-2.898,3.936-3.815,5.938c-1.636,3.57-2.91,7.037-5.59,10.014      c-2.039,2.263-4.371,4.24-6.931,5.894c-3.019,1.951-6.118,3.679-9.521,4.819c-4.495,1.505-7.837,4.345-8.62,9.266      c-0.997,6.278,1.251,12.513,0.913,18.82c-0.085,1.603-0.295,6.01-2.887,5.787c-3.446-0.297-6.1-5.383-7.622-7.906      c-3.925-6.511-7.525-13.13-11.696-19.499c-2.038-3.111-4.906-6.94-4.62-10.897c0.333-4.618,3.856-7.995,6.815-11.205      c5.217-5.657,10.374-11.921,13.112-19.213c1.428-3.806,2.117-7.63,2.058-11.441c-2.562-0.185-4.58-0.418-5.542-0.84      c-0.508-0.224-1.591-1.172-3.092-2.657C103.714,79.523,103.975,83.951,103.094,87.664"></path>
			</g>
			<g>
				<defs>
					<rect id="SVGID_45_" x="3" y="21.541" width="573.777" height="270.459"></rect>
				</defs>
				<clipPath id="SVGID_46_">
					<use xlink:href="#SVGID_45_" overflow="visible"></use>
				</clipPath>
				<path clip-path="url(#SVGID_46_)" d="M100.015,106.793c-3.382,3.976-10.254,8.979-10.054,14.835      c0.171,5.005,4.323,9.627,6.917,13.621c4.136,6.365,7.181,13.567,11.796,19.593c0.617,0.806,3.201,4.488,4.628,3.389      c1.286-0.991,1.234-3.618,1.253-5.046c0.108-8.475-4.785-21.364,4.511-26.872c2.22-1.316,4.793-1.693,7.029-2.912      c4.259-2.322,8.541-4.62,11.926-8.184c4.681-4.927,5.772-11.729,10.251-16.749c0.086-0.096,0.177-0.19,0.264-0.286      c-5.294-6.06-10.901-12.095-13.256-14.518c-3.386-3.491-15.476-3.73-23.411-4.239      C111.861,89.392,106.857,98.748,100.015,106.793"></path>
			</g>
			<g>
				<defs>
					<rect id="SVGID_47_" x="3" y="21.541" width="573.777" height="270.459"></rect>
				</defs>
				<clipPath id="SVGID_48_">
					<use xlink:href="#SVGID_47_" overflow="visible"></use>
				</clipPath>
				<path clip-path="url(#SVGID_48_)" d="M12.797,115.441c2.814-1.177,5.19-3.736,7.239-5.896      c5.117-5.397,9.276-11.785,15.656-15.842c0.101-0.064,0.204-0.12,0.305-0.184c-4.655-0.219-11.576-1.883-17.161-3.11      c0.142-5.501,0.836-8.671-1.563-6.216c-2.629,2.691-4.66,5.024-4.66,5.024c-6.959-0.921-9.725,2.334-9.611,10.775      c0.047,3.211,4.011,9.115,9.271,15.646C12.457,115.565,12.645,115.505,12.797,115.441"></path>
			</g>
			<g>
				<defs>
					<rect id="SVGID_49_" x="3" y="21.541" width="573.777" height="270.459"></rect>
				</defs>
				<clipPath id="SVGID_50_">
					<use xlink:href="#SVGID_49_" overflow="visible"></use>
				</clipPath>
				<path clip-path="url(#SVGID_50_)" d="M35.591,40.562c3.45-0.564,7.267,1.346,10.235,2.87c3.496,1.793,6.753,4.06,10.285,5.774      c0.85,0.413,1.712,0.289,2.484,0.638c0.867,0.391,1.416,1.368,1.873,2.152c2.462,4.217,4.815,8.596,9.011,11.373      c3.962,2.623,11.694,5.715,14.718,0.144c0.945-1.741,1.407-3.788,1.435-5.788c-11.341-12.943-23.764-27.726-26.26-31.029      c-4.546-6.02-10.698-8.636-20.378,2.734c-2.475,2.91-3.967,6.978-4.787,11.553C34.621,40.793,35.076,40.646,35.591,40.562"></path>
			</g>
			<g>
				<defs>
					<rect id="SVGID_51_" x="3" y="21.541" width="573.777" height="270.459"></rect>
				</defs>
				<clipPath id="SVGID_52_">
					<use xlink:href="#SVGID_51_" overflow="visible"></use>
				</clipPath>
				<path clip-path="url(#SVGID_52_)" d="M34.465,65.757c0.128,0.887,0.265,1.749,0.406,2.582c1.226-1.312,2.373-2.687,3.326-4.207      c1.251-1.998,2.55-4.794,1.547-7.175c-0.726-1.723-2.465-2.292-4.08-2.902c-1.1-0.415-2.094-0.922-2.896-1.577      c-1.525,5.411-3.292,11.652-3.876,13.565C28.214,68.258,31.465,67.051,34.465,65.757"></path>
			</g>
			<g>
				<defs>
					<rect id="SVGID_53_" x="3" y="21.541" width="573.777" height="270.459"></rect>
				</defs>
				<clipPath id="SVGID_54_">
					<use xlink:href="#SVGID_53_" overflow="visible"></use>
				</clipPath>
				<path clip-path="url(#SVGID_54_)" d="M63.964,254.279c0.895-5.598,1.674-11.354,1.567-17.038      c-0.046-2.494-0.424-4.894-1.253-7.259c-0.611-1.746-1.351-3.478-1.458-5.349c-0.181-3.171,0.823-6.185,0.841-9.331      c0.019-3.089-0.395-6.164-1.108-9.168c-1.163-4.896-2.752-11.673-6.541-15.303c-1.606-1.54-2.338-2.73-2.11-5.039      c0.183-1.855,2.181-5.009,1.484-6.8c-0.879-2.263-3.132-4.078-2.713-6.761c0.398-2.549,2.523-4.174,2.92-6.746      c0.385-2.484,0.459-4.989,1.421-7.354c1.148-2.822,2.821-5.352,4.69-7.749c1.969-2.523,5.323-6.41,8.718-3.649      c4.76,3.87,6.718,11.229,8.405,16.859c0.965,3.219,1.852,6.604,3.569,9.521c0.815,1.388,1.736,2.733,2.924,3.835      c1.131,1.048,2.746,1.721,3.801,2.775c2.314,2.313,3.561,6.746,4.384,9.813c0.642,2.392,0.89,6.851,3.197,8.259      c4.448,2.715,10.119,2.592,14.792,4.848c2.249,1.086,3.759,2.914,5.839,4.232c2.207,1.396,4.689,2.289,7.33,2.277      c3.805-0.014,8.879-1.08,12.073-3.237c2.348-1.585,3.883-3.888,5.263-6.312c1.623-2.854,3.201-5.703,5.158-8.35      c2.147-2.904,4.859-5.016,7.452-7.472c2.525-2.394,4.539-5.136,6.481-8.007c0.836-1.236,1.771-2.979,3.12-3.752      c3.117-1.789,5.895,3.606,6.548,5.841c1.621,5.549,2.526,11.288,4.343,16.782c0.996,3.018,2.163,6.092,4.035,8.688      c1.489,2.065,3.771,3.261,4.937,5.408c0.997,1.839,2.679,3.377,3.35,5.386c0.765,2.283,0.457,4.612-0.234,6.885      c-0.866,2.844-1.93,5.645-2.5,8.572c-0.511,2.629-1.022,6.694,1.767,8.307c4.417,2.554,11.049-0.061,15.405-1.603      c0.995-0.459,1.983-0.937,2.951-1.444c0.506-0.268,1.07-0.545,1.641-0.842c-17.458-26.081-18.638-37.676-18.407-41.275      c-1.49-1.485-2.684-3.414-3.768-5.063c-2.663-4.046-5.068-8.257-7.493-12.446c-2.505-4.332-4.98-8.695-7.732-12.877      c-1.685-2.558-3.798-6.501-6.739-7.842c-6.502-2.965-7.16,8.835-8.882,12.592c-3.321,7.242-8.611,13.271-13.038,19.834      c-2.553,3.782-5.37,7.715-9.331,10.145c-4.776,2.926-10.397,3.388-15.754,1.846c-5.438-1.568-9.955-4.621-13.366-9.154      c-3.579-4.756-5.993-10.216-9.204-15.203c-3.204-4.977-8.703-9.226-10.136-15.179c-0.373-1.544-0.443-3.049-0.241-4.623      c0.143-1.114,0.174-1.549-0.654-2.321c-3.325-3.109-6.4-6.631-8.976-10.385c-1.532-2.233-3.038-4.61-3.895-7.201      c-0.314-0.952-0.607-1.932-0.688-2.938c-0.079-0.974,0.166-2.292-1.227-2.121c-5.649,0.699-6.22,6.533-8.61,10.558      c-2.729,4.592-6.053,8.826-8.657,13.492c-0.955,1.712-1.75,3.201-1.604,5.163c0.102,1.373-0.548,2.646-1.226,3.799      c-1.297,2.204-2.79,4.361-3.576,6.819c-1.171,3.656-0.632,6.755-0.037,10.456c0.434,2.695,0.618,5.357,0.265,8.072      c-0.169,1.311-0.742,2.979-0.004,4.213c1.543,2.578,3.853,4.73,5.518,7.254c2.846,4.312,5.121,9.1,6.227,14.169      c0.691,3.167,1.085,6.423,0.967,9.669c-0.107,2.926-0.841,5.811-0.884,8.719c-0.141,9.354,0.227,18.655-1.753,27.874      c-2.501,11.644-8.091,21.958-16.526,30.202c0.363,0.613,0.741,1.199,1.137,1.748c4.968-3.351,11.001-7.306,16.167-10.358      c1.932-4.688,3.93-9.355,6.197-13.867C62.574,263.69,63.251,258.74,63.964,254.279"></path>
			</g>
			<g>
				<defs>
					<rect id="SVGID_55_" x="3" y="21.541" width="573.777" height="270.459"></rect>
				</defs>
				<clipPath id="SVGID_56_">
					<use xlink:href="#SVGID_55_" overflow="visible"></use>
				</clipPath>
				<path clip-path="url(#SVGID_56_)" d="M207.034,234.871c-0.343,0.186-0.682,0.365-1.007,0.539      c-1.129,0.604-2.276,1.171-3.438,1.712c-0.062,0.088-0.154,0.161-0.28,0.205c-4.684,1.651-15.531,5.718-18.522-0.904      c-2.418-5.351,1.563-11.729,2.641-16.914c0.739-3.551-0.226-5.614-2.195-8.389c-0.549-0.772-1.086-1.565-1.434-2.454      c-0.314-0.807-1.907-1.589-2.504-2.199c-3.794-3.882-5.716-9.191-7.126-14.332c-1.518-5.527-1.929-12.416-5.237-17.217      c-0.599-0.869-1.847-2.874-3.153-1.917c-0.854,0.626-1.475,1.532-2.068,2.396c-1.431,2.088-2.798,4.235-4.444,6.166      c-2.598,3.047-5.934,5.285-8.539,8.315c-2.252,2.621-4.057,5.496-5.743,8.502c-1.256,2.24-2.48,4.655-4.292,6.515      c-1.995,2.049-4.558,3.131-7.254,4.004c-4.815,1.56-10.188,2.193-14.749-0.481c-2.052-1.204-3.621-3.144-5.693-4.253      c-2.468-1.321-5.195-2.004-7.894-2.68c-3.5-0.873-8.801-1.531-10.044-5.545c-1.063-3.434-1.649-7.028-3.043-10.354      c-0.965-2.302-1.908-4.37-3.995-5.831c-1.072-0.751-2.131-1.55-3.011-2.527c-3.966-4.401-5.224-10.127-6.97-15.623      c-1.181-3.716-5.913-18.966-11.895-13.389c-2.584,2.409-4.996,5.668-6.464,8.882c-1.205,2.637-1.542,5.232-1.907,8.07      c-0.112,0.871-0.284,1.76-0.645,2.565c-0.614,1.367-2.018,2.553-2.252,4.052c-0.336,2.149,0.701,3.672,1.775,5.383      c0.388,0.617,0.9,1.296,0.905,2.063c0.02,2.48-1.555,4.685-1.587,7.153c-0.032,2.487,2.053,3.568,3.259,5.479      c2.905,4.604,4.708,10.14,5.73,15.455c0.543,2.822,0.987,5.752,0.806,8.634c-0.181,2.897-1.121,5.763-0.819,8.682      c0.247,2.376,1.364,4.474,1.942,6.765c0.49,1.939,0.757,3.844,0.769,5.843c0.033,5.327-0.574,10.681-1.388,15.94      c-0.727,4.697-1.446,9.65-3.265,14.076c-1.836,4.468-3.837,8.875-5.809,13.294c4.391-2.503,7.9-4.145,9.153-3.846      c1.02,0.242,1.882,0.777,2.627,1.463c0.032-0.05,0.065-0.1,0.097-0.147c2.685-4.16,4.379-8.937,5.597-13.712      c1.768-6.934,2.894-14.135,3.8-21.231c0.306-2.395,0.579-4.73-0.277-7.035c-1.564-4.214-2.892-8.492-4.188-12.798      c-1.251-4.144-1.812-8.3-2.706-12.507c-1.781-8.396-4.096-16.674-5.736-25.105c-0.74-3.8-1.529-7.709-1.596-11.593      c-0.024-1.353-0.188-4.41,1.573-4.929c2.865-0.842,7.076,3.146,8.926,4.832c4.65,4.246,8.767,9.459,11.39,15.211      c1.271,2.785,2.059,5.598,2.737,8.574c0.409,1.789,0.734,3.76,1.664,5.369c3.085,5.344,10.677,4.795,15.871,6.063      c4.792,1.172,9.348,3.299,12.564,7.147c2.317,2.775,3.43,5.293,7.553,5.121c14.576-0.604,20.328-17.285,29.985-25.531      c1.907-1.627,5.097-4.06,7.681-2.299c3.272,2.229,4.812,7.445,6.386,10.864c1.229,2.673,2.428,5.371,3.824,7.961      c0.803,1.489,1.872,4.089,3.509,4.856c2.546,1.191,2.017,4.488,1.815,6.927c-0.382,4.638-1.413,9.313-1.342,13.978      c0.036,2.392,0.787,3.5,3.097,4.342c2.448,0.894,4.988,1.49,7.47,2.277c3.149,1.004,6.334,2.166,9.149,3.93      c2.42,1.514,5.463,4.979,8.644,4.096c4.121-1.145,4.767-5.841,7.595-8.41c0.197-0.178,0.428-0.181,0.618-0.094      C211.242,240.984,209.037,237.838,207.034,234.871"></path>
			</g>
			<g>
				<defs>
					<rect id="SVGID_57_" x="3" y="21.541" width="573.777" height="270.459"></rect>
				</defs>
				<clipPath id="SVGID_58_">
					<use xlink:href="#SVGID_57_" overflow="visible"></use>
				</clipPath>
				<path clip-path="url(#SVGID_58_)" d="M307.393,250.836l-2.695-7.425c-0.072-0.208-0.154-0.585-0.252-1.134h-0.055      c-0.078,0.506-0.168,0.882-0.271,1.134l-2.664,7.425H307.393z M311.906,257.451h-2.057l-1.826-4.885h-7.221l-1.706,4.885h-2.066      l6.481-17.192h1.881L311.906,257.451z"></path>
			</g>
			<g>
				<defs>
					<rect id="SVGID_59_" x="3" y="21.541" width="573.777" height="270.459"></rect>
				</defs>
				<clipPath id="SVGID_60_">
					<use xlink:href="#SVGID_59_" overflow="visible"></use>
				</clipPath>
				<path clip-path="url(#SVGID_60_)" d="M313.404,254.952c1.053,0.793,2.205,1.188,3.459,1.188c1.713,0,2.566-0.588,2.566-1.766      c0-0.518-0.189-0.939-0.562-1.266c-0.373-0.324-1.105-0.698-2.199-1.119c-1.305-0.525-2.172-1.057-2.6-1.588      c-0.428-0.532-0.643-1.194-0.643-1.986c0-1.051,0.439-1.9,1.32-2.555c0.881-0.648,1.965-0.976,3.246-0.976      c1.029,0,1.951,0.187,2.762,0.556v1.931c-0.885-0.591-1.902-0.888-3.055-0.888c-0.713,0-1.289,0.164-1.734,0.488      c-0.445,0.325-0.668,0.754-0.668,1.288c0,0.533,0.152,0.938,0.461,1.22c0.309,0.283,1.002,0.647,2.082,1.1      c1.371,0.533,2.289,1.07,2.758,1.613c0.467,0.545,0.701,1.214,0.701,2.006c0,1.095-0.439,1.958-1.32,2.591      c-0.883,0.632-2.01,0.948-3.389,0.948c-1.238,0-2.303-0.248-3.188-0.743v-2.043H313.404z"></path>
			</g>
			<g>
				<defs>
					<rect id="SVGID_61_" x="3" y="21.541" width="573.777" height="270.459"></rect>
				</defs>
				<clipPath id="SVGID_62_">
					<use xlink:href="#SVGID_61_" overflow="visible"></use>
				</clipPath>
				<path clip-path="url(#SVGID_62_)" d="M323.562,254.952c1.049,0.793,2.203,1.188,3.457,1.188c1.711,0,2.566-0.588,2.566-1.766      c0-0.518-0.188-0.939-0.562-1.266c-0.371-0.324-1.105-0.698-2.201-1.119c-1.305-0.525-2.17-1.057-2.598-1.588      c-0.428-0.532-0.643-1.194-0.643-1.986c0-1.051,0.441-1.9,1.32-2.555c0.881-0.648,1.963-0.976,3.246-0.976      c1.029,0,1.949,0.187,2.762,0.556v1.931c-0.883-0.591-1.902-0.888-3.057-0.888c-0.709,0-1.287,0.164-1.732,0.488      c-0.445,0.325-0.67,0.754-0.67,1.288c0,0.533,0.154,0.938,0.461,1.22c0.311,0.281,1.006,0.647,2.084,1.1      c1.369,0.533,2.289,1.07,2.758,1.613c0.467,0.545,0.701,1.214,0.701,2.006c0,1.095-0.441,1.958-1.322,2.591      c-0.879,0.632-2.01,0.948-3.385,0.948c-1.24,0-2.305-0.248-3.188-0.743v-2.043H323.562z"></path>
			</g>
			<g>
				<defs>
					<rect id="SVGID_63_" x="3" y="21.541" width="573.777" height="270.459"></rect>
				</defs>
				<clipPath id="SVGID_64_">
					<use xlink:href="#SVGID_63_" overflow="visible"></use>
				</clipPath>
				<path clip-path="url(#SVGID_64_)" d="M335.502,251.391c0,1.449,0.371,2.608,1.113,3.473c0.742,0.867,1.734,1.3,2.975,1.3      c1.262,0,2.238-0.422,2.932-1.265c0.691-0.844,1.037-2.028,1.037-3.553c0-1.561-0.342-2.765-1.027-3.611      c-0.686-0.849-1.666-1.271-2.939-1.271c-1.248,0-2.242,0.438-2.98,1.314C335.871,248.654,335.502,249.857,335.502,251.391       M333.652,251.467c0-2.041,0.545-3.648,1.635-4.82c1.094-1.174,2.576-1.76,4.455-1.76c1.768,0,3.154,0.567,4.158,1.698      c1.004,1.132,1.506,2.696,1.506,4.694c0,1.938-0.545,3.5-1.631,4.684c-1.088,1.186-2.525,1.775-4.314,1.775      c-1.734,0-3.135-0.568-4.203-1.709C334.186,254.891,333.652,253.37,333.652,251.467"></path>
			</g>
			<g>
				<defs>
					<rect id="SVGID_65_" x="3" y="21.541" width="573.777" height="270.459"></rect>
				</defs>
				<clipPath id="SVGID_66_">
					<use xlink:href="#SVGID_65_" overflow="visible"></use>
				</clipPath>
				<path clip-path="url(#SVGID_66_)" d="M356.66,256.873c-0.934,0.578-2.021,0.865-3.262,0.865c-1.703,0-3.08-0.567-4.127-1.704      c-1.047-1.134-1.572-2.613-1.572-4.433c0-2.035,0.568-3.664,1.697-4.885c1.131-1.221,2.635-1.831,4.514-1.831      c1.035,0,1.959,0.201,2.771,0.601v1.939c-0.898-0.643-1.859-0.965-2.881-0.965c-1.232,0-2.248,0.453-3.051,1.359      c-0.803,0.908-1.201,2.111-1.201,3.613c0,1.465,0.373,2.618,1.121,3.463c0.746,0.842,1.75,1.265,3.01,1.265      c1.066,0,2.061-0.359,2.979-1.076v1.788H356.66z"></path>
			</g>
			<g>
				<defs>
					<rect id="SVGID_67_" x="3" y="21.541" width="573.777" height="270.459"></rect>
				</defs>
				<clipPath id="SVGID_68_">
					<use xlink:href="#SVGID_67_" overflow="visible"></use>
				</clipPath>
				<path clip-path="url(#SVGID_68_)" d="M359.607,245.176h1.805v12.275h-1.805V245.176z M359.357,240.759      c0-0.348,0.113-0.643,0.342-0.882c0.229-0.242,0.506-0.361,0.832-0.361c0.342,0,0.627,0.121,0.865,0.365      c0.234,0.245,0.354,0.536,0.354,0.878c0,0.326-0.117,0.609-0.354,0.854c-0.238,0.242-0.523,0.365-0.865,0.365      c-0.34,0-0.623-0.117-0.844-0.354C359.467,241.389,359.357,241.1,359.357,240.759"></path>
			</g>
			<g>
				<defs>
					<rect id="SVGID_69_" x="3" y="21.541" width="573.777" height="270.459"></rect>
				</defs>
				<clipPath id="SVGID_70_">
					<use xlink:href="#SVGID_69_" overflow="visible"></use>
				</clipPath>
				<path clip-path="url(#SVGID_70_)" d="M369.121,251.625c-1.029,0.139-1.744,0.393-2.146,0.759s-0.605,0.931-0.605,1.692      c0,0.613,0.219,1.113,0.648,1.497c0.432,0.387,0.994,0.577,1.691,0.577c0.963,0,1.764-0.351,2.4-1.053      c0.641-0.705,0.959-1.582,0.959-2.631v-1.244L369.121,251.625z M365.652,246.052c1.184-0.776,2.533-1.165,4.057-1.165      c2.789,0,4.188,1.514,4.188,4.539v8.025h-1.816v-1.934h-0.064c-0.834,1.48-2.066,2.221-3.697,2.221      c-1.188,0-2.125-0.323-2.811-0.973c-0.686-0.646-1.027-1.504-1.027-2.566c0-2.272,1.318-3.602,3.957-3.985l3.633-0.532      c0-2.131-0.834-3.197-2.5-3.197c-1.457,0-2.764,0.509-3.916,1.521v-1.954H365.652z"></path>
			</g>
			<g>
				<defs>
					<rect id="SVGID_71_" x="3" y="21.541" width="573.777" height="270.459"></rect>
				</defs>
				<clipPath id="SVGID_72_">
					<use xlink:href="#SVGID_71_" overflow="visible"></use>
				</clipPath>
				<path clip-path="url(#SVGID_72_)" d="M383.027,257.327c-0.439,0.26-1.023,0.389-1.75,0.389c-2.064,0-3.1-1.188-3.1-3.562v-7.381      h-2.088v-1.598h2.088v-3.02l1.807-0.6v3.618h3.043v1.599h-3.043v7.047c0,0.836,0.137,1.432,0.414,1.787      c0.273,0.354,0.732,0.531,1.379,0.531c0.502,0,0.918-0.137,1.25-0.41V257.327z"></path>
			</g>
			<g>
				<defs>
					<rect id="SVGID_73_" x="3" y="21.541" width="573.777" height="270.459"></rect>
				</defs>
				<clipPath id="SVGID_74_">
					<use xlink:href="#SVGID_73_" overflow="visible"></use>
				</clipPath>
				<path clip-path="url(#SVGID_74_)" d="M385.648,245.176h1.805v12.275h-1.805V245.176z M385.398,240.759      c0-0.348,0.113-0.643,0.342-0.882c0.23-0.242,0.506-0.361,0.832-0.361c0.34,0,0.629,0.121,0.863,0.365      c0.238,0.245,0.354,0.536,0.354,0.878c0,0.326-0.115,0.609-0.354,0.854c-0.234,0.242-0.523,0.365-0.863,0.365      s-0.623-0.117-0.842-0.354C385.51,241.389,385.398,241.1,385.398,240.759"></path>
			</g>
			<g>
				<defs>
					<rect id="SVGID_75_" x="3" y="21.541" width="573.777" height="270.459"></rect>
				</defs>
				<clipPath id="SVGID_76_">
					<use xlink:href="#SVGID_75_" overflow="visible"></use>
				</clipPath>
				<path clip-path="url(#SVGID_76_)" d="M392.445,251.391c0,1.449,0.371,2.608,1.113,3.473c0.744,0.867,1.734,1.3,2.973,1.3      c1.264,0,2.24-0.422,2.934-1.265c0.689-0.844,1.037-2.028,1.037-3.553c0-1.561-0.342-2.765-1.027-3.611      c-0.684-0.849-1.664-1.271-2.941-1.271c-1.246,0-2.238,0.438-2.979,1.314S392.445,249.857,392.445,251.391 M390.596,251.467      c0-2.041,0.547-3.648,1.637-4.82c1.092-1.174,2.574-1.76,4.453-1.76c1.768,0,3.154,0.567,4.158,1.698      c1.006,1.132,1.508,2.696,1.508,4.694c0,1.938-0.545,3.5-1.633,4.684c-1.086,1.186-2.525,1.775-4.316,1.775      c-1.73,0-3.133-0.568-4.203-1.709C391.133,254.891,390.596,253.37,390.596,251.467"></path>
			</g>
			<g>
				<defs>
					<rect id="SVGID_77_" x="3" y="21.541" width="573.777" height="270.459"></rect>
				</defs>
				<clipPath id="SVGID_78_">
					<use xlink:href="#SVGID_77_" overflow="visible"></use>
				</clipPath>
				<path clip-path="url(#SVGID_78_)" d="M415.344,257.451h-1.814v-7.016c0-2.647-0.949-3.975-2.85-3.975      c-0.994,0-1.811,0.38-2.445,1.139c-0.641,0.758-0.959,1.707-0.959,2.846v7.006h-1.812v-12.275h1.812v2.053h0.055      c0.898-1.56,2.215-2.342,3.947-2.342c1.32,0,2.328,0.434,3.023,1.299c0.693,0.865,1.043,2.119,1.043,3.764V257.451      L415.344,257.451z"></path>
			</g>
			<g>
				<defs>
					<rect id="SVGID_79_" x="3" y="21.541" width="573.777" height="270.459"></rect>
				</defs>
				<clipPath id="SVGID_80_">
					<use xlink:href="#SVGID_79_" overflow="visible"></use>
				</clipPath>
				<path clip-path="url(#SVGID_80_)" d="M425.609,251.391c0,1.449,0.371,2.608,1.113,3.473c0.742,0.867,1.732,1.3,2.975,1.3      c1.262,0,2.238-0.422,2.93-1.265c0.691-0.844,1.037-2.028,1.037-3.553c0-1.561-0.34-2.765-1.025-3.611      c-0.686-0.848-1.666-1.271-2.939-1.271c-1.248,0-2.242,0.438-2.979,1.314C425.979,248.654,425.609,249.857,425.609,251.391       M423.76,251.467c0-2.041,0.547-3.648,1.637-4.82c1.092-1.174,2.576-1.76,4.453-1.76c1.768,0,3.154,0.567,4.156,1.698      c1.006,1.132,1.508,2.696,1.508,4.694c0,1.938-0.543,3.5-1.631,4.684c-1.088,1.186-2.525,1.775-4.316,1.775      c-1.732,0-3.133-0.568-4.203-1.709C424.295,254.891,423.76,253.37,423.76,251.467"></path>
			</g>
			<g>
				<defs>
					<rect id="SVGID_81_" x="3" y="21.541" width="573.777" height="270.459"></rect>
				</defs>
				<clipPath id="SVGID_82_">
					<use xlink:href="#SVGID_81_" overflow="visible"></use>
				</clipPath>
				<path clip-path="url(#SVGID_82_)" d="M444.018,240.925c-0.387-0.215-0.812-0.321-1.283-0.321c-1.355,0-2.033,0.881-2.033,2.642      v1.932h2.814v1.599h-2.814v10.678h-1.795v-10.678h-2.055v-1.599h2.055v-2.021c0-1.295,0.361-2.309,1.082-3.04      c0.721-0.732,1.607-1.101,2.658-1.101c0.588,0,1.045,0.07,1.371,0.211V240.925z"></path>
			</g>
		</g>
		<polygon points="460.281,257.451 451.432,257.451 451.432,240.259 459.902,240.259 459.902,241.989 453.281,241.989     453.281,247.839 459.402,247.839 459.402,249.57 453.281,249.57 453.281,255.719 460.281,255.719   "></polygon>
		<g>
			<g>
				<defs>
					<rect id="SVGID_83_" x="3" y="21.541" width="573.777" height="270.459"></rect>
				</defs>
				<clipPath id="SVGID_84_">
					<use xlink:href="#SVGID_83_" overflow="visible"></use>
				</clipPath>
				<path clip-path="url(#SVGID_84_)" d="M471.439,256.873c-0.936,0.578-2.023,0.865-3.262,0.865c-1.705,0-3.078-0.567-4.127-1.704      c-1.049-1.134-1.572-2.613-1.572-4.433c0-2.035,0.566-3.664,1.697-4.885s2.635-1.831,4.512-1.831      c1.037,0,1.963,0.201,2.771,0.601v1.939c-0.896-0.643-1.857-0.965-2.881-0.965c-1.23,0-2.25,0.453-3.049,1.359      c-0.803,0.908-1.203,2.111-1.203,3.613c0,1.465,0.375,2.618,1.121,3.463c0.746,0.842,1.75,1.265,3.012,1.265      c1.066,0,2.061-0.359,2.98-1.076V256.873L471.439,256.873z"></path>
			</g>
			<g>
				<defs>
					<rect id="SVGID_85_" x="3" y="21.541" width="573.777" height="270.459"></rect>
				</defs>
				<clipPath id="SVGID_86_">
					<use xlink:href="#SVGID_85_" overflow="visible"></use>
				</clipPath>
				<path clip-path="url(#SVGID_86_)" d="M475.408,251.391c0,1.449,0.371,2.608,1.115,3.473c0.742,0.867,1.734,1.3,2.973,1.3      c1.264,0,2.238-0.422,2.932-1.265c0.691-0.844,1.039-2.028,1.039-3.553c0-1.561-0.344-2.765-1.027-3.611      c-0.686-0.848-1.666-1.271-2.943-1.271c-1.246,0-2.238,0.438-2.977,1.314C475.777,248.654,475.408,249.857,475.408,251.391       M473.561,251.467c0-2.041,0.545-3.648,1.637-4.82c1.09-1.174,2.574-1.76,4.451-1.76c1.77,0,3.156,0.567,4.16,1.698      c1.002,1.132,1.504,2.696,1.504,4.694c0,1.938-0.541,3.5-1.629,4.684c-1.086,1.186-2.527,1.775-4.316,1.775      c-1.732,0-3.135-0.568-4.203-1.709C474.094,254.891,473.561,253.37,473.561,251.467"></path>
			</g>
			<g>
				<defs>
					<rect id="SVGID_87_" x="3" y="21.541" width="573.777" height="270.459"></rect>
				</defs>
				<clipPath id="SVGID_88_">
					<use xlink:href="#SVGID_87_" overflow="visible"></use>
				</clipPath>
				<path clip-path="url(#SVGID_88_)" d="M493.893,257.327c-0.441,0.26-1.027,0.389-1.752,0.389c-2.064,0-3.1-1.188-3.1-3.562      v-7.381h-2.088v-1.598h2.088v-3.02l1.807-0.6v3.618h3.045v1.599h-3.045v7.047c0,0.836,0.137,1.432,0.414,1.787      c0.273,0.354,0.734,0.531,1.381,0.531c0.5,0,0.918-0.137,1.25-0.41V257.327z"></path>
			</g>
			<g>
				<defs>
					<rect id="SVGID_89_" x="3" y="21.541" width="573.777" height="270.459"></rect>
				</defs>
				<clipPath id="SVGID_90_">
					<use xlink:href="#SVGID_89_" overflow="visible"></use>
				</clipPath>
				<path clip-path="url(#SVGID_90_)" d="M497.352,251.391c0,1.449,0.371,2.608,1.113,3.473c0.742,0.867,1.734,1.3,2.973,1.3      c1.264,0,2.24-0.422,2.932-1.265c0.691-0.844,1.039-2.028,1.039-3.553c0-1.561-0.342-2.765-1.027-3.611      c-0.686-0.848-1.666-1.271-2.941-1.271c-1.246,0-2.24,0.438-2.98,1.314C497.721,248.654,497.352,249.857,497.352,251.391       M495.502,251.467c0-2.041,0.547-3.648,1.639-4.82c1.09-1.174,2.572-1.76,4.451-1.76c1.77,0,3.154,0.567,4.158,1.698      c1.004,1.132,1.506,2.696,1.506,4.694c0,1.938-0.543,3.5-1.631,4.684c-1.088,1.186-2.525,1.775-4.314,1.775      c-1.732,0-3.135-0.568-4.203-1.709C496.037,254.891,495.502,253.37,495.502,251.467"></path>
			</g>
			<g>
				<defs>
					<rect id="SVGID_91_" x="3" y="21.541" width="573.777" height="270.459"></rect>
				</defs>
				<clipPath id="SVGID_92_">
					<use xlink:href="#SVGID_91_" overflow="visible"></use>
				</clipPath>
				<path clip-path="url(#SVGID_92_)" d="M519.99,257.451h-1.816v-1.943h-0.045c-0.789,1.488-2.025,2.23-3.705,2.23      c-2.871,0-4.307-1.743-4.307-5.229v-7.335h1.793v7.023c0,2.644,0.986,3.963,2.957,3.963c0.975,0,1.768-0.367,2.381-1.099      c0.617-0.733,0.926-1.672,0.926-2.818v-7.069h1.816V257.451z"></path>
			</g>
			<g>
				<defs>
					<rect id="SVGID_93_" x="3" y="21.541" width="573.777" height="270.459"></rect>
				</defs>
				<clipPath id="SVGID_94_">
					<use xlink:href="#SVGID_93_" overflow="visible"></use>
				</clipPath>
				<path clip-path="url(#SVGID_94_)" d="M530.09,247.072c-0.332-0.26-0.814-0.389-1.443-0.389c-0.852,0-1.549,0.414-2.096,1.237      c-0.547,0.825-0.818,1.907-0.818,3.247v6.282h-1.818v-12.275h1.818v2.541h0.053c0.275-0.873,0.695-1.55,1.264-2.03      c0.564-0.479,1.188-0.723,1.867-0.723c0.518,0,0.906,0.057,1.176,0.167v1.942H530.09z"></path>
			</g>
			<g>
				<defs>
					<rect id="SVGID_95_" x="3" y="21.541" width="573.777" height="270.459"></rect>
				</defs>
				<clipPath id="SVGID_96_">
					<use xlink:href="#SVGID_95_" overflow="visible"></use>
				</clipPath>
				<path clip-path="url(#SVGID_96_)" d="M532.211,245.176h1.807v12.275h-1.807V245.176z M531.961,240.759      c0-0.348,0.113-0.643,0.342-0.882c0.23-0.242,0.506-0.361,0.834-0.361c0.34,0,0.629,0.121,0.863,0.365      c0.236,0.245,0.354,0.536,0.354,0.878c0,0.326-0.117,0.609-0.354,0.854c-0.234,0.242-0.523,0.365-0.863,0.365      c-0.342,0-0.621-0.117-0.844-0.354C532.072,241.389,531.961,241.1,531.961,240.759"></path>
			</g>
			<g>
				<defs>
					<rect id="SVGID_97_" x="3" y="21.541" width="573.777" height="270.459"></rect>
				</defs>
				<clipPath id="SVGID_98_">
					<use xlink:href="#SVGID_97_" overflow="visible"></use>
				</clipPath>
				<path clip-path="url(#SVGID_98_)" d="M537.223,254.952c1.053,0.793,2.205,1.188,3.459,1.188c1.711,0,2.564-0.588,2.564-1.766      c0-0.518-0.188-0.939-0.561-1.266c-0.373-0.324-1.105-0.698-2.201-1.119c-1.305-0.525-2.17-1.057-2.598-1.588      c-0.43-0.532-0.645-1.194-0.645-1.986c0-1.051,0.441-1.9,1.322-2.555c0.881-0.648,1.963-0.976,3.246-0.976      c1.027,0,1.951,0.187,2.762,0.556v1.931c-0.885-0.591-1.902-0.888-3.055-0.888c-0.713,0-1.291,0.164-1.734,0.488      c-0.445,0.325-0.668,0.754-0.668,1.288c0,0.533,0.152,0.938,0.461,1.22c0.309,0.283,1.002,0.647,2.082,1.1      c1.369,0.533,2.289,1.07,2.756,1.613c0.467,0.545,0.701,1.214,0.701,2.006c0,1.095-0.441,1.958-1.32,2.591      c-0.881,0.632-2.01,0.948-3.387,0.948c-1.24,0-2.303-0.248-3.188-0.743v-2.043H537.223z"></path>
			</g>
			<g>
				<defs>
					<rect id="SVGID_99_" x="3" y="21.541" width="573.777" height="270.459"></rect>
				</defs>
				<clipPath id="SVGID_100_">
					<use xlink:href="#SVGID_99_" overflow="visible"></use>
				</clipPath>
				<path clip-path="url(#SVGID_100_)" d="M565.08,257.451h-1.814v-7.049c0-1.428-0.211-2.441-0.637-3.041      c-0.424-0.6-1.125-0.899-2.104-0.899c-0.818,0-1.525,0.394-2.119,1.177c-0.596,0.785-0.891,1.717-0.891,2.797v7.017h-1.809      v-7.304c0-2.459-0.932-3.687-2.793-3.687c-0.855,0-1.562,0.374-2.125,1.122s-0.844,1.697-0.844,2.852v7.017h-1.816v-12.275      h1.816v1.94H550c0.842-1.485,2.08-2.229,3.719-2.229c0.783,0,1.486,0.234,2.115,0.704c0.627,0.47,1.053,1.091,1.277,1.858      c0.891-1.709,2.225-2.562,4-2.562c2.646,0,3.969,1.668,3.969,5.006V257.451L565.08,257.451z"></path>
			</g>
			<g>
				<defs>
					<rect id="SVGID_101_" x="3" y="21.541" width="573.777" height="270.459"></rect>
				</defs>
				<clipPath id="SVGID_102_">
					<use xlink:href="#SVGID_101_" overflow="visible"></use>
				</clipPath>
				<path clip-path="url(#SVGID_102_)" d="M298.738,272.449h1.804v12.274h-1.804V272.449z M298.486,268.033      c0-0.349,0.115-0.642,0.344-0.884c0.229-0.239,0.506-0.359,0.832-0.359c0.341,0,0.627,0.124,0.865,0.366      c0.234,0.244,0.353,0.537,0.353,0.877c0,0.326-0.117,0.61-0.353,0.854c-0.238,0.244-0.523,0.366-0.865,0.366      s-0.623-0.117-0.844-0.354C298.598,268.661,298.486,268.374,298.486,268.033"></path>
			</g>
			<g>
				<defs>
					<rect id="SVGID_103_" x="3" y="21.541" width="573.777" height="270.459"></rect>
				</defs>
				<clipPath id="SVGID_104_">
					<use xlink:href="#SVGID_103_" overflow="visible"></use>
				</clipPath>
				<path clip-path="url(#SVGID_104_)" d="M314.385,284.725h-1.814v-7.015c0-2.648-0.951-3.972-2.85-3.972      c-0.994,0-1.811,0.378-2.445,1.138c-0.639,0.758-0.957,1.706-0.957,2.846v7.003h-1.816V272.45h1.816v2.055h0.053      c0.898-1.562,2.215-2.343,3.947-2.343c1.318,0,2.328,0.434,3.023,1.299c0.693,0.866,1.043,2.12,1.043,3.763V284.725z"></path>
			</g>
			<g>
				<defs>
					<rect id="SVGID_105_" x="3" y="21.541" width="573.777" height="270.459"></rect>
				</defs>
				<clipPath id="SVGID_106_">
					<use xlink:href="#SVGID_105_" overflow="visible"></use>
				</clipPath>
				<path clip-path="url(#SVGID_106_)" d="M325.727,269.286v6.327h2.75c1.021,0,1.855-0.306,2.502-0.916      c0.645-0.61,0.967-1.422,0.967-2.437c0-0.932-0.295-1.661-0.881-2.187c-0.588-0.525-1.443-0.789-2.566-0.789L325.727,269.286      L325.727,269.286z M335.805,284.725h-2.217l-2.826-4.839c-0.605-1.036-1.15-1.714-1.645-2.036      c-0.49-0.322-1.068-0.481-1.729-0.481h-1.662v7.356h-1.85v-17.19h4.959c1.543,0,2.771,0.405,3.684,1.216      c0.916,0.811,1.373,1.929,1.373,3.357c0,2.375-1.244,3.918-3.73,4.629v0.043c0.465,0.207,0.846,0.478,1.146,0.811      c0.303,0.333,0.754,0.991,1.354,1.977L335.805,284.725z"></path>
			</g>
			<g>
				<defs>
					<rect id="SVGID_107_" x="3" y="21.541" width="573.777" height="270.459"></rect>
				</defs>
				<clipPath id="SVGID_108_">
					<use xlink:href="#SVGID_107_" overflow="visible"></use>
				</clipPath>
				<path clip-path="url(#SVGID_108_)" d="M338.252,278.666c0,1.449,0.371,2.605,1.113,3.473c0.744,0.865,1.734,1.299,2.977,1.299      c1.26,0,2.236-0.422,2.93-1.266c0.693-0.843,1.037-2.024,1.037-3.552c0-1.561-0.34-2.764-1.025-3.611      c-0.686-0.849-1.666-1.271-2.939-1.271c-1.25,0-2.242,0.438-2.98,1.313C338.623,275.928,338.252,277.134,338.252,278.666       M336.404,278.743c0-2.042,0.545-3.649,1.635-4.822c1.092-1.172,2.576-1.76,4.453-1.76c1.77,0,3.156,0.564,4.16,1.698      c1.004,1.132,1.506,2.695,1.506,4.694c0,1.938-0.545,3.499-1.631,4.684c-1.088,1.184-2.525,1.774-4.316,1.774      c-1.732,0-3.135-0.568-4.203-1.709C336.938,282.165,336.404,280.644,336.404,278.743"></path>
			</g>
			<g>
				<defs>
					<rect id="SVGID_109_" x="3" y="21.541" width="573.777" height="270.459"></rect>
				</defs>
				<clipPath id="SVGID_110_">
					<use xlink:href="#SVGID_109_" overflow="visible"></use>
				</clipPath>
				<path clip-path="url(#SVGID_110_)" d="M368.219,284.725h-1.816v-7.047c0-1.428-0.211-2.44-0.635-3.04      c-0.424-0.601-1.125-0.898-2.105-0.898c-0.818,0-1.525,0.392-2.119,1.175c-0.596,0.785-0.893,1.718-0.893,2.797v7.015h-1.805      v-7.303c0-2.456-0.932-3.684-2.795-3.684c-0.855,0-1.562,0.373-2.125,1.12c-0.564,0.747-0.844,1.696-0.844,2.852v7.015h-1.814      v-12.274h1.814v1.942h0.055c0.842-1.487,2.08-2.23,3.719-2.23c0.783,0,1.488,0.236,2.115,0.706s1.053,1.089,1.277,1.857      c0.893-1.71,2.227-2.563,4-2.563c2.646,0,3.971,1.668,3.971,5.006V284.725z"></path>
			</g>
			<g>
				<defs>
					<rect id="SVGID_111_" x="3" y="21.541" width="573.777" height="270.459"></rect>
				</defs>
				<clipPath id="SVGID_112_">
					<use xlink:href="#SVGID_111_" overflow="visible"></use>
				</clipPath>
				<path clip-path="url(#SVGID_112_)" d="M375.645,278.897c-1.027,0.141-1.744,0.396-2.146,0.763      c-0.402,0.366-0.604,0.929-0.604,1.69c0,0.613,0.215,1.113,0.646,1.498c0.432,0.386,0.994,0.576,1.689,0.576      c0.965,0,1.766-0.352,2.402-1.054c0.641-0.703,0.959-1.579,0.959-2.63v-1.243L375.645,278.897z M372.176,273.327      c1.182-0.776,2.533-1.166,4.057-1.166c2.791,0,4.188,1.514,4.188,4.541v8.021h-1.816v-1.931h-0.066      c-0.832,1.48-2.064,2.22-3.695,2.22c-1.188,0-2.125-0.322-2.811-0.971s-1.027-1.505-1.027-2.57c0-2.271,1.32-3.599,3.959-3.983      l3.633-0.532c0-2.132-0.836-3.195-2.504-3.195c-1.457,0-2.762,0.506-3.914,1.521v-1.954H372.176z"></path>
			</g>
			<g>
				<defs>
					<rect id="SVGID_113_" x="3" y="21.541" width="573.777" height="270.459"></rect>
				</defs>
				<clipPath id="SVGID_114_">
					<use xlink:href="#SVGID_113_" overflow="visible"></use>
				</clipPath>
				<path clip-path="url(#SVGID_114_)" d="M393.967,284.725h-1.816v-7.015c0-2.648-0.949-3.972-2.85-3.972      c-0.992,0-1.809,0.378-2.443,1.138c-0.639,0.758-0.957,1.706-0.957,2.846v7.003h-1.816V272.45h1.816v2.055h0.053      c0.898-1.562,2.215-2.343,3.947-2.343c1.32,0,2.326,0.434,3.023,1.299c0.693,0.866,1.043,2.12,1.043,3.763V284.725      L393.967,284.725z"></path>
			</g>
			<g>
				<defs>
					<rect id="SVGID_115_" x="3" y="21.541" width="573.777" height="270.459"></rect>
				</defs>
				<clipPath id="SVGID_116_">
					<use xlink:href="#SVGID_115_" overflow="visible"></use>
				</clipPath>
				<path clip-path="url(#SVGID_116_)" d="M397.643,272.449h1.803v12.274h-1.803V272.449z M397.393,268.033      c0-0.349,0.113-0.642,0.342-0.884c0.229-0.239,0.506-0.359,0.832-0.359c0.34,0,0.629,0.124,0.863,0.366      c0.236,0.244,0.354,0.537,0.354,0.877c0,0.326-0.117,0.61-0.354,0.854c-0.234,0.244-0.523,0.366-0.863,0.366      s-0.623-0.117-0.844-0.354C397.502,268.661,397.393,268.374,397.393,268.033"></path>
			</g>
			<g>
				<defs>
					<rect id="SVGID_117_" x="3" y="21.541" width="573.777" height="270.459"></rect>
				</defs>
				<clipPath id="SVGID_118_">
					<use xlink:href="#SVGID_117_" overflow="visible"></use>
				</clipPath>
				<path clip-path="url(#SVGID_118_)" d="M407.154,278.897c-1.027,0.141-1.742,0.396-2.146,0.763      c-0.4,0.366-0.604,0.929-0.604,1.69c0,0.613,0.217,1.113,0.648,1.498c0.43,0.386,0.994,0.576,1.689,0.576      c0.965,0,1.766-0.352,2.402-1.054c0.639-0.703,0.957-1.579,0.957-2.63v-1.243L407.154,278.897z M403.686,273.327      c1.184-0.776,2.535-1.166,4.057-1.166c2.791,0,4.189,1.514,4.189,4.541v8.021h-1.818v-1.931h-0.062      c-0.834,1.48-2.066,2.22-3.697,2.22c-1.189,0-2.127-0.322-2.811-0.971c-0.686-0.648-1.027-1.505-1.027-2.57      c0-2.271,1.318-3.599,3.957-3.983l3.633-0.532c0-2.132-0.834-3.195-2.502-3.195c-1.457,0-2.762,0.506-3.916,1.521v-1.954      H403.686z"></path>
			</g>
		</g>
	</g>
</g>
</svg>
