<?xml version="1.0" encoding="UTF-8"?>
<!-- Generator: Adobe Illustrator 16.0.0, SVG Export Plug-In . SVG Version: 6.00 Build 0)  -->
<svg xmlns="http://www.w3.org/2000/svg" xmlns:xlink="http://www.w3.org/1999/xlink" id="Layer_1" x="0px" y="0px" width="600px" height="141px" viewBox="0 -1.5 600 141" xml:space="preserve">
<rect x="2.306" y="-1.5" fill="#FAFAFA" width="598.194" height="141"></rect>
<g>
	<g>
		<g>
			<defs>
				<rect id="SVGID_1_" x="6.617" y="19.5" width="586.766" height="109.166"></rect>
			</defs>
			<clipPath id="SVGID_2_">
				<use xlink:href="#SVGID_1_" overflow="visible"></use>
			</clipPath>
			<g clip-path="url(#SVGID_2_)">
				<g>
					<defs>
						<rect id="SVGID_3_" x="-74.926" y="-61.444" width="749.852" height="271.052"></rect>
					</defs>
					<defs>
						<rect id="SVGID_4_" x="-74.926" y="-61.444" width="749.852" height="271.052"></rect>
					</defs>
					<clipPath id="SVGID_5_">
						<use xlink:href="#SVGID_3_" overflow="visible"></use>
					</clipPath>
					<clipPath id="SVGID_6_" clip-path="url(#SVGID_5_)">
						<use xlink:href="#SVGID_4_" overflow="visible"></use>
					</clipPath>
					<path clip-path="url(#SVGID_6_)" d="M118.909,70.851h-3.256c-6.668,0-11.468,4.524-11.468,11.122       c0,5.044,1.464,10.738,8,10.738c6.134,0,7.333-4.53,7.333-9.445V71.387C119.519,71.388,119.698,70.851,118.909,70.851        M144.426,96.585h2.932c1.03,0,0.83,0.719,0.83,0.719v6.34c0,1.031-0.988,0.708-0.988,0.708h-25.281       c0,0-0.518,0.075-0.706-0.711c-0.356-1.511-0.83-3.237-1.066-4.587c-0.24-1.349-1.159-0.024-1.159-0.024       c-5.208,4.152-10.835,7.26-18.004,7.26c-12.136,0-21.204-7.629-21.204-19.663c0-15,9.602-23.538,21.47-23.538l18.056-0.449       c0,0,0.213-0.048,0.213-0.762v-2.025c0-5.301-2.933-7.521-8.8-7.521c-7.498,0-10.986,2.721-14.472,7.012       c0,0-0.226,0.509-0.94,0.191c-0.715-0.314-7.148-2.572-7.148-2.572s-0.563-0.036-0.246-0.83       c0.315-0.792,8.039-19.766,8.039-19.766s0.059-0.663,0.693-0.424c0.94,0.353,5.949,1.889,6.818,2.206       c0.794,0.318,0.465,0.982,0.465,0.982s-0.248,0.869-0.549,1.588c-0.634,1.506,0.441,0.865,0.441,0.865       c4.974-1.92,10.024-2.684,15.303-2.684c14.935,0,24.804,6.208,24.804,21.472v35.029       C143.923,95.4,143.792,96.585,144.426,96.585 M145.941,43.686c9.991-2.86,18.933-9.544,23.134-18.897       c0,0,0.076-0.699,0.787-0.541c0.716,0.156,5.802,1.029,6.899,1.249c0.794,0.156,0.459,0.634,0.459,0.634       c-0.607,3.08-0.8,6.759-0.8,9.537v4.652c0,0.715,0.5,0.52,0.5,0.52h10.858c0.633,0,0.39,0.588,0.39,0.588       s-1.616,7.996-1.807,8.96c-0.16,0.793-0.724,0.54-0.724,0.54h-8.639c-0.712,0-0.578,0.488-0.578,0.488v36.891       c0,4.011,3.466,4.794,5.464,4.794c2.018,0,2.369,0.042,3.934-0.757c0,0,0.563-0.522,0.8,0.273       c0.193,0.646,2.417,5.878,2.648,6.401c0.289,0.647-0.284,0.84-0.284,0.84c-8.562,6.138-9.347,6.428-20.164,6.428       c-12.136,0-16.803-5.82-16.803-17.074V51.416c0,0,0.179-0.488-0.455-0.488h-5.626c0,0-0.454,0.251-0.454-0.621v-5.944       C145.479,43.808,145.941,43.686,145.941,43.686 M325.707,72.527c0-20.823,16.406-33.626,37.605-33.626       c21.339,0,37.737,12.803,37.737,33.626c0,20.954-16.398,33.762-37.737,33.762C342.111,106.289,325.707,93.481,325.707,72.527        M350.11,63.348c0,9.312,4.001,33.114,17.468,33.114c7.202,0,9.071-7.635,9.071-14.622c0-9.313-4.004-33.109-17.473-33.109       C350.11,48.73,350.11,58.56,350.11,63.348 M476.012,104.352h-32.81c0,0-0.568,0.083-0.568-0.471v-6.736       c0-0.634,0.729-0.56,0.729-0.56h3.881c0.635,0,0.458-0.471,0.458-0.471V60.112c0-3.748-3.466-5.691-7.064-5.691       c-4.308,0-7.411,2.335-10.452,4.897c0,0-0.482,0.341-0.482,0.975v35.821c0,0-0.131,0.471,0.505,0.471h4.04       c0,0,0.656-0.233,0.656,0.56v6.736c0,0.554-0.498,0.471-0.498,0.471h-33.362c0,0-0.412,0.242-0.412-0.63v-6.578       c0-0.792,0.412-0.56,0.412-0.56h3.804c0.631,0,0.45-0.55,0.45-0.55V53.636c0,0,0.323-0.78-0.628-0.462       c-0.951,0.315-3.388,0.939-3.388,0.939s-0.65,0.314-0.65-0.398v-6.499c0-0.713,0.568-0.706,0.568-0.706l28.138-7.444       c0,0,0.631-0.332,0.631,0.383v9.272c0,1.03,0.643,0.169,0.643,0.169c6.587-5.017,13.246-9.99,22.159-9.99       c16.938,0,19.338,11.253,19.338,18.367v38.688c0,0-0.059,0.629,0.497,0.629h3.486c0,0,0.55-0.154,0.55,0.56v6.578       C476.641,104.593,476.012,104.352,476.012,104.352 M509.859,39.077l-28.05,7.705c0,0-0.513,0.038-0.513,0.593v6.261       c0,0.87,0.821,0.5,0.821,0.5s1.816-0.376,3.409-0.631c0.8-0.131,0.57,0.606,0.57,1.161v41.289c0,0,0.217,0.629-0.574,0.629       h-3.965c0,0-0.529-0.233-0.529,0.639v6.577c0,0.793,0.529,0.551,0.529,0.551h32.812c0.793,0,0.526-0.629,0.526-0.629       s-0.013-5.473,0-6.498c0.015-0.875-0.606-0.639-0.606-0.639h-3.251c-0.791,0-0.54-0.55-0.54-0.55V39.529       C510.5,38.736,509.859,39.077,509.859,39.077 M499.698,19.5c5.734,0,11.866,1.421,11.866,8.147       c0,8.148-10.532,10.994-17.2,10.994c-5.331,0-9.065-2.715-9.065-8.018C485.296,24.284,493.962,19.5,499.698,19.5        M228.896,70.841h-3.256c-6.665,0-11.467,4.526-11.467,11.122c0,5.046,1.467,10.738,8,10.738c6.137,0,7.333-4.528,7.333-9.445       V71.382C229.506,71.383,229.688,70.841,228.896,70.841 M254.416,96.58h2.929c1.03,0,0.832,0.718,0.832,0.718v6.338       c0,1.027-0.989,0.707-0.989,0.707h-25.281c0,0-0.518,0.077-0.703-0.709c-0.359-1.514-0.828-3.24-1.065-4.587       c-0.24-1.348-1.161-0.026-1.161-0.026c-5.205,4.155-10.835,7.261-18.004,7.261c-12.135,0-21.204-7.629-21.204-19.658       c0-15.003,9.602-23.541,21.472-23.541l18.052-0.451c0,0,0.214-0.049,0.214-0.76v-2.022c0-5.306-2.93-7.524-8.799-7.524       c-7.498,0-10.988,2.723-14.473,7.012c0,0-0.228,0.51-0.942,0.191c-0.713-0.314-7.145-2.572-7.145-2.572       s-0.565-0.035-0.247-0.827c0.315-0.794,8.037-19.768,8.037-19.768s0.062-0.661,0.694-0.423       c0.938,0.352,5.949,1.888,6.819,2.207c0.794,0.315,0.463,0.981,0.463,0.981s-0.248,0.868-0.549,1.587       c-0.633,1.506,0.438,0.865,0.438,0.865c4.976-1.921,10.024-2.684,15.302-2.684c14.937,0,24.806,6.208,24.806,21.472v35.028       C253.913,95.394,253.78,96.58,254.416,96.58 M280.27,55.714c0,6.986,4.134,26.515,14.137,26.515       c4.932,0,6.934-2.459,6.934-8.667c0-6.982-4.132-26.513-14.135-26.513C282.272,47.049,280.27,49.507,280.27,55.714        M290.674,107.574c-0.978,1.026-2.003,5.306-2.003,8.158c0,3.232,1.735,6.724,5.469,6.724c3.335,0,5.065-1.553,5.065-4.783       c0-5.717-3.203-7.733-7.593-10.406C291.612,107.266,291.264,106.951,290.674,107.574 M317.245,40.81       c-1.374-0.823-1.529-1.032-4.307-0.874c-1.598,0.09-2.396,1.421-2.396,2.848c0,2.587,12.533,6.596,12.533,21.728       c0,20.094-18.69,24.308-34.655,28.253c0,0-1.814,0.374,0.009,0.547c10.7,1.031,32.514,3.758,32.514,17.896       c0,14.095-19.334,17.461-27.336,17.461c-11.735,0-23.735-2.461-23.735-12.936c0-6.018,6.49-10.051,12.051-10.998       c0,0,1.664-0.254,0.005-0.462c-1.896-0.238-12.485-1.168-16.172-0.415c0,0-0.818,0.117-1.057-0.518       c-0.336-0.897-2.499-6.434-2.692-6.899c-0.394-0.95,0.42-0.995,0.42-0.995c7.883-1.27,14.77-5.433,18.072-6.388       c1.761-0.512,0-0.771,0-0.771c-11.134-1.964-21.961-9.545-21.961-22.74c0-18.624,15.202-26.644,29.737-26.644       c6.708,0,10.534,1.048,14.099,1.597c0,0,0.539,0.238,0.776-0.554c0.339-1.128,1.393-4.277,1.393-4.277       c1.599-4.786,4.001-6.726,11.199-6.726c1.37,0,2.827,0.188,4.223,0.324c0,0,0.721-0.196,0.561,0.673       c-0.128,0.72-2.47,10.062-2.61,10.622C317.677,41.514,317.245,40.81,317.245,40.81 M554.139,70.841h-3.249       c-6.67,0-11.475,4.526-11.475,11.122c0,5.046,1.468,10.738,8.002,10.738c6.136,0,7.336-4.528,7.336-9.445V71.382       C554.754,71.383,554.934,70.841,554.139,70.841 M579.659,96.58h2.932c1.03,0,0.832,0.718,0.832,0.718v6.338       c0,1.027-0.99,0.707-0.99,0.707h-25.281c0,0-0.516,0.077-0.7-0.709c-0.36-1.514-0.833-3.24-1.07-4.587       c-0.239-1.348-1.161-0.026-1.161-0.026c-5.203,4.155-10.829,7.261-18.003,7.261c-12.136,0-21.2-7.629-21.2-19.658       c0-15.003,9.598-23.541,21.467-23.541l18.054-0.451c0,0,0.218-0.049,0.218-0.76v-2.022c0-5.306-2.935-7.524-8.804-7.524       c-7.493,0-10.983,2.723-14.47,7.012c0,0-0.227,0.51-0.943,0.191c-0.71-0.314-7.148-2.572-7.148-2.572s-0.561-0.035-0.24-0.827       c0.317-0.794,8.037-19.768,8.037-19.768s0.059-0.661,0.693-0.423c0.938,0.352,5.947,1.888,6.82,2.207       c0.793,0.315,0.463,0.981,0.463,0.981s-0.25,0.868-0.554,1.587c-0.632,1.506,0.443,0.865,0.443,0.865       c4.975-1.921,10.023-2.684,15.298-2.684c14.938,0,24.806,6.208,24.806,21.472v35.028       C579.156,95.394,579.024,96.58,579.659,96.58 M35.688,54.269v31.753c0,5.69,1.866,10.479,8.268,10.479       c8.002,0,11.469-4.915,11.469-19.404c0-23.28-11.734-24.444-15.868-24.444l-3.158,0.529       C36.397,53.183,35.688,53.395,35.688,54.269 M36.332,44.768c5.694-3.417,10.246-5.825,16.156-5.825       c15.336,0,27.337,12.417,27.337,30.913c0,18.237-11.468,36.477-31.203,36.477c-3.798,0-8.801-0.466-12.378-2.289       c0,0-0.558-0.243-0.558,0.392v11.175c0,0,0.006,1.065,0.798,1.065h7.132c0,0,0.738-0.036,0.738,0.836v6.023       c0,0.635-0.657,0.907-0.657,0.907H7.638c0,0-1.022,0.044-1.022-0.827v-6.102c0-0.95,0.785-0.836,0.785-0.836h3.012       c0.873,0,0.873-0.907,0.873-0.907V53.795c0-0.872-0.793-0.555-0.793-0.555L7.247,54.05c0,0-0.63,0.299-0.63-0.574v-6.498       c0-0.712,0.555-0.675,0.555-0.675l27.888-7.175c0,0,0.628-0.23,0.628,0.481v4.833C35.688,45.076,36.332,44.768,36.332,44.768"></path>
					<path clip-path="url(#SVGID_6_)" d="M590.894,40.087c-1.655,1.666-3.661,2.498-6.017,2.498c-2.353,0-4.354-0.832-6.007-2.498       c-1.643-1.654-2.463-3.663-2.463-6.019c0-2.336,0.832-4.33,2.491-5.987c1.65-1.651,3.642-2.472,5.979-2.472       c2.356,0,4.361,0.822,6.018,2.472c1.665,1.647,2.489,3.645,2.489,5.987C593.383,36.417,592.558,38.424,590.894,40.087        M579.707,28.917c-1.425,1.424-2.141,3.145-2.141,5.163c0,2.031,0.712,3.763,2.129,5.197c1.426,1.431,3.155,2.145,5.193,2.145       s3.771-0.715,5.197-2.145c1.426-1.434,2.134-3.166,2.134-5.197c0-2.018-0.708-3.737-2.134-5.163       c-1.435-1.432-3.164-2.149-5.197-2.149C582.867,26.769,581.142,27.487,579.707,28.917 M584.723,29.378       c1.164,0,2.021,0.109,2.558,0.334c0.97,0.405,1.454,1.194,1.454,2.37c0,0.833-0.3,1.451-0.908,1.845       c-0.322,0.207-0.771,0.358-1.342,0.45c0.72,0.118,1.247,0.419,1.577,0.914c0.334,0.494,0.494,0.976,0.494,1.445v0.68       c0,0.217,0.01,0.448,0.026,0.694c0.019,0.246,0.046,0.408,0.088,0.484l0.063,0.116h-1.537c-0.008-0.032-0.018-0.062-0.022-0.09       c-0.007-0.032-0.017-0.068-0.026-0.106l-0.032-0.299v-0.737c0-1.075-0.303-1.786-0.898-2.131       c-0.355-0.198-0.977-0.299-1.867-0.299h-1.323v3.663h-1.586v-9.333H584.723z M586.515,30.883       c-0.427-0.23-1.104-0.344-2.044-0.344h-1.443v3.348h1.528c0.713,0,1.249-0.07,1.608-0.206c0.657-0.254,0.984-0.734,0.984-1.444       C587.148,31.561,586.937,31.114,586.515,30.883"></path>
				</g>
			</g>
		</g>
	</g>
</g>
</svg>
