<?xml version="1.0" encoding="UTF-8"?>
<!-- Generator: Adobe Illustrator 16.0.0, SVG Export Plug-In . SVG Version: 6.00 Build 0)  -->
<svg xmlns="http://www.w3.org/2000/svg" xmlns:xlink="http://www.w3.org/1999/xlink" id="Layer_1" x="0px" y="0px" width="600px" height="400px" viewBox="0 0 600 400" xml:space="preserve">
<rect x="2.306" fill="#FAFAFA" width="598.194" height="400"></rect>
<g>
	<g>
		<defs>
			<rect id="SVGID_1_" x="2.153" y="72.239" width="475.964" height="88.552"></rect>
		</defs>
		<clipPath id="SVGID_2_">
			<use xlink:href="#SVGID_1_" overflow="visible"></use>
		</clipPath>
		<g clip-path="url(#SVGID_2_)">
			<defs>
				<rect id="SVGID_3_" x="-63.992" y="6.58" width="608.255" height="219.868"></rect>
			</defs>
			<clipPath id="SVGID_4_">
				<use xlink:href="#SVGID_3_" overflow="visible"></use>
			</clipPath>
			<path clip-path="url(#SVGID_4_)" d="M476.099,88.939c-1.343,1.351-2.97,2.026-4.881,2.026c-1.908,0-3.531-0.675-4.872-2.026     c-1.333-1.342-1.998-2.971-1.998-4.882c0-1.895,0.674-3.512,2.02-4.857c1.339-1.339,2.954-2.005,4.851-2.005     c1.911,0,3.538,0.667,4.881,2.005c1.35,1.336,2.019,2.957,2.019,4.857C478.117,85.962,477.448,87.59,476.099,88.939      M467.024,79.878c-1.156,1.155-1.736,2.551-1.736,4.188c0,1.647,0.577,3.052,1.727,4.215c1.156,1.161,2.559,1.74,4.213,1.74     c1.653,0,3.058-0.58,4.215-1.74c1.157-1.163,1.731-2.568,1.731-4.215c0-1.637-0.574-3.032-1.731-4.188     c-1.164-1.161-2.566-1.743-4.215-1.743C469.588,78.136,468.188,78.718,467.024,79.878 M471.093,80.252     c0.944,0,1.638,0.089,2.074,0.271c0.787,0.328,1.18,0.968,1.18,1.922c0,0.676-0.243,1.177-0.737,1.497     c-0.261,0.168-0.625,0.29-1.088,0.365c0.583,0.096,1.011,0.34,1.279,0.741c0.271,0.4,0.401,0.792,0.401,1.172v0.552     c0,0.176,0.008,0.364,0.022,0.563c0.014,0.199,0.037,0.331,0.071,0.393l0.051,0.094H473.1c-0.007-0.026-0.015-0.05-0.019-0.073     c-0.006-0.026-0.014-0.055-0.021-0.086l-0.027-0.243v-0.598c0-0.872-0.245-1.448-0.728-1.728     c-0.288-0.161-0.792-0.243-1.515-0.243h-1.073v2.971h-1.286v-7.57H471.093z M472.546,81.473     c-0.346-0.187-0.896-0.279-1.657-0.279h-1.171v2.715h1.239c0.578,0,1.014-0.057,1.305-0.167c0.533-0.206,0.799-0.595,0.799-1.171     C473.061,82.023,472.889,81.66,472.546,81.473"></path>
		</g>
	</g>
</g>
<g>
	<g>
		<defs>
			<rect id="SVGID_5_" x="2.306" y="163.561" width="343.039" height="72.877"></rect>
		</defs>
		<clipPath id="SVGID_6_">
			<use xlink:href="#SVGID_5_" overflow="visible"></use>
		</clipPath>
		<g clip-path="url(#SVGID_6_)">
			<defs>
				<rect id="SVGID_7_" x="-25.02" y="136.21" width="397.69" height="127.578"></rect>
			</defs>
			<clipPath id="SVGID_8_">
				<use xlink:href="#SVGID_7_" overflow="visible"></use>
			</clipPath>
			<path clip-path="url(#SVGID_8_)" d="M79.468,166.642h14.64v66.157h-14.64V166.642z M240.153,166.642l-10.273,36.694h-0.202     l-10.761-36.694h-18.814l-10.449,66.157h14.377l6.53-47.335h0.19l13.011,47.335h12.124l12.525-47.335h0.225l6.895,47.335h14.801     l-11.026-66.157H240.153z M329.855,232.808h15.489l-26.244-66.159h-20.451l-26.164,66.159h14.498l5.291-13.225h32.389     L329.855,232.808L329.855,232.808z M308.506,178.631h0.18l11.111,28.493h-22.583L308.506,178.631z M142.24,193.503v13.676h23.325     v0.847c0,8.692-7.627,14.948-20.092,14.948c-12.571,0-22.595-6.683-22.595-22.915c0-16.562,10.575-23.007,22.607-23.007     c9.662,0,16.619,1.705,24.468,5.666l6.718-11.224c-8.186-4.743-20.102-7.725-31.186-7.725c-20.1,0-38.037,10.727-38.037,36.541     c0,22.642,15.539,35.6,37.34,35.6c24.049,0,35.518-11.489,35.959-32.155c0.068-3.08-0.053-6.033-0.247-10.251H142.24z      M49.763,194.313c-9.123-1.968-15.288-1.207-24.51-2.973c-5.773-1.103-7.545-3.181-7.545-6.069c0-5.499,7.251-8.322,16.846-8.322     c7.526,0,15.149,1.779,22.412,5.115l7.057-11.981c-7.781-4.016-18.781-6.521-30.975-6.521c-11.815,0-30.405,5.445-30.405,22.67     c0,10.131,6.79,16.252,15.402,18.277c8.295,1.934,13.548,1.455,23.492,2.957c6.444,0.971,8.998,3.08,8.998,6.809     c0,5.318-6.787,8.586-16.82,8.586c-8.228,0-16.937-1.774-25.45-5.391l-5.957,12.425c10.52,4.774,21.398,6.544,30.438,6.544     c20.26,0,33.444-8.652,33.444-23.249C66.187,203.438,60.334,196.602,49.763,194.313"></path>
		</g>
	</g>
</g>
<rect x="445" y="57.667" fill="#FAFAFA" width="155" height="113.333"></rect>
<rect x="844" y="624" fill="#FAFAFA" width="4" height="5"></rect>
</svg>
