<?xml version="1.0" encoding="UTF-8"?>
<!-- Generator: Adobe Illustrator 16.0.0, SVG Export Plug-In . SVG Version: 6.00 Build 0)  -->
<svg xmlns="http://www.w3.org/2000/svg" xmlns:xlink="http://www.w3.org/1999/xlink" id="Layer_1" x="0px" y="0px" width="600px" height="400px" viewBox="0 0 600 400" xml:space="preserve">
<rect x="2.306" fill="#FAFAFA" width="598.194" height="400"></rect>
<g>
	<g>
		<defs>
			<rect id="SVGID_1_" x="2.306" y="158.847" width="343.039" height="72.877"></rect>
		</defs>
		<clipPath id="SVGID_2_">
			<use xlink:href="#SVGID_1_" overflow="visible"></use>
		</clipPath>
		<g clip-path="url(#SVGID_2_)">
			<defs>
				<rect id="SVGID_3_" x="-25.02" y="131.497" width="397.69" height="127.578"></rect>
			</defs>
			<clipPath id="SVGID_4_">
				<use xlink:href="#SVGID_3_" overflow="visible"></use>
			</clipPath>
		</g>
	</g>
</g>
<rect x="844" y="624" fill="#FAFAFA" width="4" height="5"></rect>
<g>
	<g>
		<defs>
			<rect id="SVGID_5_" x="2.306" y="153.651" width="574.694" height="108.844"></rect>
		</defs>
		<clipPath id="SVGID_6_">
			<use xlink:href="#SVGID_5_" overflow="visible"></use>
		</clipPath>
		<g clip-path="url(#SVGID_6_)">
			<defs>
				<rect id="SVGID_7_" x="-3.371" y="149.339" width="586.047" height="117.471"></rect>
			</defs>
			<clipPath id="SVGID_8_">
				<use xlink:href="#SVGID_7_" overflow="visible"></use>
			</clipPath>
			<g clip-path="url(#SVGID_8_)">
				<defs>
					<rect id="SVGID_9_" x="-3.371" y="149.339" width="586.047" height="117.471"></rect>
				</defs>
				<clipPath id="SVGID_10_">
					<use xlink:href="#SVGID_9_" overflow="visible"></use>
				</clipPath>
				<g opacity="0.5" clip-path="url(#SVGID_10_)">
					<g>
						<defs>
							<rect id="SVGID_11_" x="106.735" y="245.223" width="362.131" height="17.273"></rect>
						</defs>
						<clipPath id="SVGID_12_">
							<use xlink:href="#SVGID_11_" overflow="visible"></use>
						</clipPath>
						<path clip-path="url(#SVGID_12_)" d="M115.237,245.223c4.813,0,8.551,3.859,8.551,8.65c0,4.764-3.738,8.622-8.551,8.622        c-4.789,0-8.502-3.858-8.502-8.622C106.735,249.082,110.449,245.223,115.237,245.223 M115.237,260.298        c3.542,0,6.254-2.86,6.254-6.425c0-3.568-2.712-6.452-6.254-6.452c-3.519,0-6.23,2.884-6.23,6.452        C109.007,257.438,111.718,260.298,115.237,260.298"></path>
						<polygon clip-path="url(#SVGID_12_)" points="139.958,245.418 139.958,247.544 132.409,247.544 132.409,252.919         138.395,252.919 138.395,255.045 132.409,255.045 132.409,262.252 130.138,262.252 130.138,245.418       "></polygon>
						<polygon clip-path="url(#SVGID_12_)" points="165.168,245.418 165.168,247.544 157.471,247.544 157.471,252.919         164.19,252.919 164.19,255.045 157.471,255.045 157.471,260.127 165.412,260.127 165.412,262.252 155.199,262.252         155.199,245.418       "></polygon>
						<polygon clip-path="url(#SVGID_12_)" points="181.563,262.252 173.891,249.572 173.891,262.252 171.62,262.252         171.62,245.418 173.868,245.418 181.466,258.001 181.466,245.418 183.737,245.418 183.737,262.252       "></polygon>
						<path clip-path="url(#SVGID_12_)" d="M191.162,262.253v-16.835h6.523c4.789,0,7.573,3.664,7.573,8.455        c0,4.764-2.785,8.38-7.573,8.38H191.162z M197.685,260.127c3.494,0,5.301-2.713,5.301-6.254c0-3.545-1.807-6.329-5.301-6.329        h-4.252v12.583H197.685z"></path>
						<path clip-path="url(#SVGID_12_)" d="M213.162,257.976l-1.637,4.274h-2.418l6.4-16.832h2.443l6.376,16.832h-2.394        l-1.637-4.274H213.162z M219.514,255.924l-2.784-7.476l-2.786,7.476H219.514z"></path>
						<polygon clip-path="url(#SVGID_12_)" points="239.582,262.252 231.91,249.572 231.91,262.252 229.639,262.252         229.639,245.418 231.886,245.418 239.485,258.001 239.485,245.418 241.756,245.418 241.756,262.252       "></polygon>
						<path clip-path="url(#SVGID_12_)" d="M260.65,248.961c-1.075-0.953-2.492-1.563-4.056-1.563c-3.517,0-6.229,2.907-6.229,6.476        c0,3.564,2.712,6.448,6.229,6.448c3.031,0,5.229-1.759,5.376-4.544h-4.789v-1.979h7.378c0,5.911-3.151,8.696-7.965,8.696        c-4.788,0-8.502-3.858-8.502-8.622c0-4.791,3.714-8.65,8.502-8.65c2.224,0,4.227,0.855,5.693,2.224L260.65,248.961z"></path>
						<polygon clip-path="url(#SVGID_12_)" points="280.459,245.418 280.459,247.544 272.763,247.544 272.763,252.919         279.481,252.919 279.481,255.045 272.763,255.045 272.763,260.127 280.704,260.127 280.704,262.252 270.491,262.252         270.491,245.418       "></polygon>
						<path clip-path="url(#SVGID_12_)" d="M298.468,262.25h-2.761l-4.349-6.303h-2.15v6.303h-2.296v-16.832h6.474        c3.542,0,4.983,2.639,4.983,5.277c0,2.493-1.245,4.911-4.397,5.181L298.468,262.25z M289.208,247.544v6.278h4.008        c2.051,0,2.808-1.562,2.808-3.127c0-1.539-0.757-3.151-2.711-3.151H289.208z"></path>
						<polygon clip-path="url(#SVGID_12_)" points="314.86,245.418 314.86,247.544 307.164,247.544 307.164,252.919         313.883,252.919 313.883,255.045 307.164,255.045 307.164,260.127 315.105,260.127 315.105,262.252 304.893,262.252         304.893,245.418       "></polygon>
						<path clip-path="url(#SVGID_12_)" d="M321.312,262.253v-16.835h6.523c4.788,0,7.573,3.664,7.573,8.455        c0,4.764-2.785,8.38-7.573,8.38H321.312z M327.836,260.127c3.493,0,5.3-2.713,5.3-6.254c0-3.545-1.807-6.329-5.3-6.329h-4.251        v12.583H327.836z"></path>
						<path clip-path="url(#SVGID_12_)" d="M353.24,257.976l-1.638,4.274h-2.416l6.398-16.832h2.442l6.378,16.832h-2.393        l-1.639-4.274H353.24z M359.592,255.924l-2.783-7.476l-2.786,7.476H359.592z"></path>
						<polygon clip-path="url(#SVGID_12_)" points="379.66,262.252 371.987,249.572 371.987,262.252 369.716,262.252         369.716,245.418 371.965,245.418 379.562,258.001 379.562,245.418 381.833,245.418 381.833,262.252       "></polygon>
						<rect x="389.254" y="245.418" clip-path="url(#SVGID_12_)" width="2.271" height="16.834"></rect>
						<polygon clip-path="url(#SVGID_12_)" points="414.036,245.418 416.112,245.418 418.165,262.252 415.917,262.252         414.379,249.597 409.124,260.395 407.121,260.395 401.821,249.597 400.281,262.252 398.032,262.252 400.086,245.418         402.163,245.418 408.1,257.781       "></polygon>
						<path clip-path="url(#SVGID_12_)" d="M427.089,257.976l-1.639,4.274h-2.418l6.4-16.832h2.444l6.376,16.832h-2.394        l-1.637-4.274H427.089z M433.439,255.924l-2.785-7.476l-2.784,7.476H433.439z"></path>
						<polygon clip-path="url(#SVGID_12_)" points="445.835,245.418 445.835,260.127 452.7,260.127 452.7,262.252 443.563,262.252         443.563,245.418       "></polygon>
						<path clip-path="url(#SVGID_12_)" d="M463.204,260.37c2.148,0,3.201-1.196,3.396-2.468c0.148-1.807-1.343-2.662-2.858-3.005        l-2.173-0.537c-3.568-0.904-4.104-2.933-4.104-4.398c0-2.834,2.588-4.739,5.447-4.739c3.078,0,5.424,1.905,5.424,4.936h-2.272        c0-1.686-1.343-2.76-3.176-2.76c-1.638,0-3.151,1.001-3.151,2.539c0,0.734,0.269,1.833,2.395,2.346l2.198,0.538        c3.152,0.807,4.837,2.59,4.496,5.277c-0.294,2.418-2.322,4.396-5.62,4.396c-3.443,0-5.887-2.467-5.887-5.106h2.271        C459.614,258.856,461.077,260.37,463.204,260.37"></path>
					</g>
				</g>
				<g opacity="0.5" clip-path="url(#SVGID_10_)">
					<g>
						<defs>
							<rect id="SVGID_13_" x="46.12" y="253.176" width="41.84" height="1.109"></rect>
						</defs>
						<clipPath id="SVGID_14_">
							<use xlink:href="#SVGID_13_" overflow="visible"></use>
						</clipPath>
						<rect x="46.12" y="253.176" clip-path="url(#SVGID_14_)" width="41.84" height="1.109"></rect>
					</g>
				</g>
				<path clip-path="url(#SVGID_10_)" d="M58.245,177.087h20.612v7.869c0.913-2.622,2.31-4.732,4.191-6.33      c1.882-1.596,4.732-2.395,8.553-2.395c8.837,0,13.257,4.762,13.257,14.284v25.744h4.79v1.54H85.444v-1.54h3.507v-27.797      c0-3.421-0.229-5.63-0.685-6.628c-0.458-0.997-1.283-1.497-2.48-1.497c-1.825,0-3.435,1.197-4.832,3.592      c-1.397,2.395-2.096,5.303-2.096,8.724v23.605h3.678v1.54H58.245v-1.54h4.705v-37.633h-4.705V177.087z"></path>
				<path clip-path="url(#SVGID_10_)" d="M137.686,217.801l-0.94-5.987c-1.94,4.562-5.874,6.843-11.803,6.843      c-4.905,0-8.711-1.767-11.419-5.305c-2.709-3.534-4.062-8.808-4.062-15.822c0-14.199,5.646-21.298,16.934-21.298      c5.018,0,8.326,1.398,9.922,4.191v-25.231H131.1v-1.541h21.383v62.608h4.19v1.541H137.686z M126.909,212.027      c0.627,1.969,1.781,2.95,3.463,2.95c1.683,0,3.136-0.74,4.362-2.223c1.225-1.482,1.839-3.678,1.839-6.586v-18.646      c0-2.451-0.484-4.533-1.454-6.244c-0.97-1.71-2.396-2.565-4.277-2.565c-1.882,0-3.165,1.254-3.848,3.763      c-0.685,2.51-1.027,6.9-1.027,13.172v4.447C125.968,206.084,126.282,210.06,126.909,212.027"></path>
				<path clip-path="url(#SVGID_10_)" d="M162.267,212.968c-3.678-3.791-5.517-9.066-5.517-15.823s2.067-11.932,6.201-15.524      c4.134-3.592,9.394-5.388,15.781-5.388c12.943,0,19.159,6.501,18.645,19.5h-24.12v3.336c0,5.588,0.713,9.808,2.139,12.658      c1.424,2.852,3.905,4.276,7.44,4.276c6.614,0,10.949-3.533,13.001-10.604l1.539,0.255c-1.083,4.106-3.036,7.3-5.859,9.58      s-7.055,3.422-12.701,3.422C171.462,218.656,165.945,216.761,162.267,212.968 M173.344,194.022h8.809v-4.19      c0-4.62-0.271-7.77-0.812-9.451c-0.542-1.682-1.625-2.523-3.25-2.523s-2.823,0.897-3.593,2.694      c-0.769,1.796-1.154,4.89-1.154,9.281V194.022z"></path>
				<path clip-path="url(#SVGID_10_)" d="M226.542,179.482c-2.11,0-3.963,1.369-5.559,4.106c-1.598,2.736-2.395,5.987-2.395,9.75      v22.921h6.073v1.541h-26.686v-1.541h4.704v-37.632h-4.704v-1.54h20.613v8.21c0.74-2.908,2.166-5.145,4.276-6.714      c2.109-1.567,4.504-2.352,7.185-2.352c2.679,0,4.86,0.757,6.542,2.267c1.682,1.511,2.523,3.649,2.523,6.415      s-0.628,4.89-1.881,6.372c-1.254,1.483-3.179,2.223-5.773,2.223c-2.596,0-4.506-0.855-5.731-2.565      c-1.228-1.711-1.383-4.077-0.47-7.1h3.081C229.763,180.936,229.165,179.482,226.542,179.482"></path>
				<path clip-path="url(#SVGID_10_)" d="M259.985,205.57v-26.943h-4.705v-1.54h4.705v-11.033l15.908-3.935v14.967h11.12v1.54      h-11.12v28.825c0,2.681,0.271,4.646,0.812,5.901c0.543,1.253,1.669,1.881,3.379,1.881c1.711,0,3.208-0.855,4.491-2.566      c1.282-1.71,2.124-4.048,2.523-7.014l1.454,0.171c-0.457,3.936-1.709,7.058-3.764,9.366c-2.053,2.31-5.445,3.465-10.177,3.465      c-4.734,0-8.354-0.941-10.863-2.823C261.239,213.952,259.985,210.53,259.985,205.57"></path>
				<path clip-path="url(#SVGID_10_)" d="M287.371,153.652h20.612v31.304c0.913-2.623,2.311-4.732,4.193-6.329      c1.88-1.596,4.731-2.395,8.552-2.395c8.837,0,13.258,4.762,13.258,14.284v25.744h4.789v1.541H314.57v-1.541h3.507v-27.796      c0-3.422-0.229-5.63-0.685-6.629c-0.457-0.997-1.282-1.497-2.48-1.497c-1.825,0-3.436,1.197-4.832,3.592      c-1.397,2.396-2.097,5.303-2.097,8.724v23.606h3.68v1.541h-24.292v-1.541h4.704v-61.068h-4.704V153.652z"></path>
				<path clip-path="url(#SVGID_10_)" d="M343.667,212.968c-3.677-3.791-5.516-9.066-5.516-15.823s2.066-11.932,6.2-15.524      c4.133-3.592,9.393-5.388,15.781-5.388c12.943,0,19.158,6.501,18.645,19.5h-24.12v3.336c0,5.588,0.714,9.808,2.14,12.658      c1.425,2.852,3.905,4.276,7.44,4.276c6.614,0,10.948-3.533,13.002-10.604l1.538,0.255c-1.083,4.106-3.037,7.3-5.858,9.58      c-2.823,2.28-7.055,3.422-12.701,3.422C352.861,218.656,347.347,216.761,343.667,212.968 M354.745,194.022h8.808v-4.19      c0-4.62-0.271-7.77-0.812-9.451c-0.544-1.682-1.625-2.523-3.252-2.523c-1.624,0-2.82,0.897-3.591,2.694s-1.153,4.89-1.153,9.281      V194.022z"></path>
				<path clip-path="url(#SVGID_10_)" d="M424.192,216.859c2.853,0,5.374-0.77,7.569-2.31c2.195-1.539,3.295-3.861,3.295-6.97      s-1.185-5.487-3.55-7.142c-2.367-1.653-5.731-3.093-10.094-4.32c-4.362-1.224-7.525-2.293-9.494-3.207      c-1.967-0.911-3.836-2.109-5.603-3.593c-3.534-2.963-5.302-7.554-5.302-13.77c0-5.074,1.809-9.437,5.431-13.086      c3.621-3.648,8.565-5.474,14.842-5.474c3.019,0,6.168,0.443,9.45,1.325c3.278,0.885,5.314,1.327,6.114,1.327      c0.798,0,1.51-0.569,2.137-1.711h0.942l0.6,17.277h-1.37c-2.737-4.961-5.602-8.938-8.594-11.932      c-2.994-2.994-6.246-4.49-9.751-4.49c-3.506,0-6.231,0.813-8.17,2.438c-1.937,1.625-2.908,3.792-2.908,6.5      c0,2.708,1.156,4.79,3.466,6.243c2.308,1.454,5.145,2.639,8.51,3.55c3.363,0.913,5.572,1.54,6.627,1.882      c1.056,0.341,2.368,0.813,3.937,1.411c1.567,0.599,2.85,1.227,3.849,1.882c0.996,0.657,2.053,1.483,3.165,2.48      c1.111,0.999,1.979,2.096,2.609,3.292c1.538,2.737,2.307,5.988,2.307,9.751c0,6.159-1.923,11.105-5.771,14.84      c-3.85,3.734-8.91,5.603-15.184,5.603c-3.25,0-6.971-0.428-11.162-1.284c-4.191-0.854-6.514-1.282-6.97-1.282      c-0.799,0-1.568,0.855-2.311,2.566h-1.197l-0.854-20.356h1.455c2.506,4.961,5.715,9.294,9.622,13.001      C415.738,215.008,419.859,216.859,424.192,216.859"></path>
				<polygon clip-path="url(#SVGID_10_)" points="473.997,217.801 473.997,216.26 477.932,216.26 468.267,196.418 466.642,196.846       466.642,216.26 470.576,216.26 470.576,217.801 446.029,217.801 446.029,216.26 450.732,216.26 450.732,155.191       445.686,155.191 445.686,153.652 466.642,153.652 466.642,195.135 468.011,194.622 487.255,178.627 479.215,178.627       479.215,177.088 496.065,177.088 496.065,178.627 490.078,178.627 479.899,187.266 494.695,216.26 497.775,216.26       497.775,217.801     "></polygon>
				<path clip-path="url(#SVGID_10_)" d="M498.51,177.087h20.955v39.172h4.79v1.541h-25.402v-1.541h4.704v-37.632h-5.047V177.087z       M511.425,171.187c-3.023,0-5.173-0.77-6.456-2.31c-1.284-1.54-1.925-3.449-1.925-5.73c0-2.281,0.697-4.162,2.095-5.646      c1.396-1.482,3.521-2.223,6.374-2.223c2.849,0,5.015,0.67,6.5,2.009c1.479,1.341,2.222,3.251,2.222,5.73      c0,2.481-0.713,4.462-2.139,5.944C516.67,170.445,514.447,171.187,511.425,171.187"></path>
				<path clip-path="url(#SVGID_10_)" d="M525.597,177.087h20.612v7.869c0.911-2.622,2.309-4.732,4.19-6.33      c1.883-1.596,4.733-2.395,8.554-2.395c8.837,0,13.257,4.762,13.257,14.284v25.744H577v1.54h-24.205v-1.54h3.508v-27.797      c0-3.421-0.229-5.63-0.686-6.628c-0.456-0.997-1.282-1.497-2.48-1.497c-1.824,0-3.436,1.197-4.833,3.592      c-1.397,2.395-2.095,5.303-2.095,8.724v23.605h3.677v1.54h-24.289v-1.54h4.704v-37.633h-4.704V177.087z"></path>
				<g opacity="0.5" clip-path="url(#SVGID_10_)">
					<g>
						<defs>
							<rect id="SVGID_15_" x="487.156" y="253.176" width="41.84" height="1.109"></rect>
						</defs>
						<clipPath id="SVGID_16_">
							<use xlink:href="#SVGID_15_" overflow="visible"></use>
						</clipPath>
						<rect x="487.155" y="253.176" clip-path="url(#SVGID_16_)" width="41.841" height="1.109"></rect>
					</g>
				</g>
				<path clip-path="url(#SVGID_10_)" d="M39.511,218.235c-0.282-0.254-0.646-0.397-1.024-0.404l-1.753-0.025      c-0.166,0.004-0.764-0.157-0.915-0.228l-0.423-0.241c-0.148-0.07-0.553-0.035-0.565,0.216l-0.015,0.247      c-0.008,0.13,0,0.258,0.021,0.385c0.029,0.175,0.055,0.381,0.042,0.516c-0.023,0.214-0.115,0.674-0.143,0.845      c-0.042,0.259,0.014,0.5,0.381,0.601l0.319-0.007c0.204-0.002,0.405-0.05,0.587-0.141c0.259-0.13,0.708-0.23,0.997-0.224      l1.592-0.234c0.153,0.003,0.305-0.025,0.445-0.085l0.326-0.135c0.183-0.077,0.301-0.259,0.295-0.456      C39.68,218.864,39.728,218.377,39.511,218.235"></path>
				<path clip-path="url(#SVGID_10_)" d="M45.182,215.961c-0.176-0.441-0.419-0.577-0.85-0.28c-0.43,0.298-1.103,0.683-2.329,0.943      c-1.225,0.258-1.384,0.374-1.243,0.823c0.045,0.143,0.1,0.143,0.153,0.42c0.041,0.216,0.157,0.96,0.48,0.969      c0.476,0.012,0.689-0.352,0.985-0.528c0.295-0.175,1.259-0.438,1.844-0.483c0.54-0.044,1.598-0.619,1.294-1.156      C45.344,216.356,45.358,216.406,45.182,215.961"></path>
				<path clip-path="url(#SVGID_10_)" d="M22.186,213.469c0.808-0.79,1.408-1.854,1.219-2.917c-0.411-2.301-1.419-2.975-2.718-3.003      c-0.113-0.003-0.228,0-0.346,0.008c-0.015,0.001-0.03,0.001-0.045,0.001c-1.45-0.033-1.446-6.157-1.64-8.625      c-0.196-2.493,0.974-11.058,1.053-14.79c0.009-0.396,0.022-0.814,0.04-1.245l4.575,4.128v-1.564v-25.065h5.407v-2.281H2.827      H2.306v2.281h0.521h4.576v9.799v1.565l2.956,2.665c-0.004,3.126,0.023,6.21-0.049,8.934c-0.195,7.369-0.018,13.623,0.053,15.749      c0.045,1.358-0.431,2.473-0.504,2.562c-1.248,1.529-0.59,3.845,1.232,4.605l0.577,0.15c0.119-0.447,0.311-0.79,0.509-1.142      c0.371-0.66,0.805-1.584,0.925-3.875c-0.237-0.579-0.458-1.022-0.537-1.356c-0.216-0.917-0.166-6.941,0.188-13.75      c0.152-2.92,0.097-6.153,0.014-9.705l2.196,1.982c-0.332,5.214-0.973,13.651-0.599,20.26c0.477,8.411-1.913,6.588-1.514,9.865      c0.177,1.461,0.552,1.638,0.964,1.647c0.124,0.003,0.25-0.01,0.376-0.006c0.395,0.008,0.78,0.164,1.022,1.393      c0.521,2.636,2.813,2.737,2.982,2.74c0.007,0,0.009,0,0.009,0c0.282,0.017,0.547,0.03,0.797,0.035      C20.337,214.547,21.267,214.364,22.186,213.469"></path>
				<path clip-path="url(#SVGID_10_)" d="M32.572,216.855c-0.241-0.062-1.291-0.582-1.469-0.706      c-0.226-0.159-0.307-0.429-0.463-0.657c-0.263-0.386-0.732-0.665-1.239-0.927c-0.196-0.102-0.43-0.232-0.669-0.463      c-0.227-0.221-0.513-0.545-0.519-0.86c-0.013-0.646-0.307-1.27-1.414-1.938c-1.527-0.924-1.936,0.157-2.041,0.958      c-0.098,0.75-0.53,1.504-1.019,2.081c-1.18,1.396-2.815,1.831-4.346,1.528c0,0-0.838-0.062-0.449,1.097      c0.389,1.158,1.421,1.607,2.708,1.152c1.287-0.454,1.586,0.745,3.247,1.327c1.176,0.409,4.096,0.764,4.096,0.764      c0.836,0.047,2.179-0.048,2.849,0.014c0.715,0.062,1.063,0.315,1.198-0.276C33.389,218.421,33.75,217.151,32.572,216.855"></path>
				<path clip-path="url(#SVGID_10_)" d="M49.785,211.922c-0.254-0.159-0.488-0.42-0.727-0.561      c-0.543-0.321-1.019,0.609-1.144,0.996c-0.125,0.387-0.975,1.563-1.521,1.738c-0.545,0.176-0.359,0.925,0.161,1.364      c0,0,0.049,0.049,0.294,0.269c0.245,0.221,1.055,0.061,1.035-0.317c-0.021-0.38,0.739-1.487,1.39-1.873      c0.211-0.125,0.383-0.29,0.52-0.458C50.083,212.724,50.267,212.221,49.785,211.922"></path>
				<path clip-path="url(#SVGID_10_)" d="M45.624,158.136v2.281h5.146v39.492c0,3.833-0.557,7.036-1.65,9.542l2.187,1.932      l0.132-0.222c1.454-3.117,2.194-7.088,2.194-11.834v-38.91h4.574v-2.281H45.624z"></path>
			</g>
		</g>
	</g>
</g>
</svg>
