<?xml version="1.0" encoding="UTF-8"?>
<!-- Generator: Adobe Illustrator 16.0.0, SVG Export Plug-In . SVG Version: 6.00 Build 0)  -->
<svg xmlns="http://www.w3.org/2000/svg" xmlns:xlink="http://www.w3.org/1999/xlink" id="Layer_1" x="0px" y="0px" width="600px" height="400px" viewBox="0 0 600 400" xml:space="preserve">
<rect x="2.306" fill="#FAFAFA" width="598.194" height="400"></rect>
<g>
	<g>
		<defs>
			<rect id="SVGID_1_" x="2.306" y="158.847" width="343.039" height="72.877"></rect>
		</defs>
		<clipPath id="SVGID_2_">
			<use xlink:href="#SVGID_1_" overflow="visible"></use>
		</clipPath>
		<g clip-path="url(#SVGID_2_)">
			<defs>
				<rect id="SVGID_3_" x="-25.02" y="131.497" width="397.69" height="127.578"></rect>
			</defs>
			<clipPath id="SVGID_4_">
				<use xlink:href="#SVGID_3_" overflow="visible"></use>
			</clipPath>
		</g>
	</g>
</g>
<rect x="844" y="624" fill="#FAFAFA" width="4" height="5"></rect>
<g>
	<polygon points="386.232,334 0,334 0,76.512 386.232,76.512 386.232,334  "></polygon>
	<path fill="#FFFFFF" d="M69.452,217.569c1.096,0,1.941,0.844,1.941,1.945v48.769c0,1.013-0.845,1.858-1.941,1.858H58.806   c-0.759,0-1.437-0.42-1.775-1.183l-13.979-29.704v29.028c0,1.013-0.847,1.858-1.858,1.858h-8.112c-1.099,0-1.943-0.846-1.943-1.858   v-48.769c0-1.102,0.844-1.945,1.943-1.945h10.645c0.764,0,1.437,0.509,1.691,1.184L59.48,248.79v-29.275   c0-1.102,0.846-1.945,1.86-1.945H69.452L69.452,217.569z"></path>
	<path fill="#FFFFFF" d="M106.452,243.896c0-7.51-1.439-16.371-8.365-16.371c-6.846,0-8.283,8.861-8.283,16.371   c0,5.908,0.93,10.296,2.703,13.08c1.354,2.193,3.212,3.207,5.581,3.207C105.013,260.184,106.452,251.324,106.452,243.896   L106.452,243.896z M119.464,243.896c0,19.916-11.492,26.918-21.377,26.918c-9.801,0-21.296-7.002-21.296-26.918   c0-19.911,11.495-27.001,21.296-27.001C107.972,216.896,119.464,223.985,119.464,243.896L119.464,243.896z"></path>
	<path fill="#FFFFFF" d="M148.651,233.268c0-3.968-2.656-5.062-7.386-5.062h-3.643v10.544h3.643   C145.321,238.75,148.651,236.895,148.651,233.268L148.651,233.268z M162.076,268.283c0,0.338-0.165,0.759-0.425,1.098   c-0.333,0.505-0.927,0.761-1.52,0.761h-9.461c-0.844,0-1.608-0.506-1.86-1.353l-4.815-15.863c-0.845-2.786-3.501-3.798-6.289-3.798   h-0.083c0.083,0,0,19.155,0,19.155c0,1.013-0.847,1.858-1.947,1.858h-8.957c-1.014,0-1.859-0.846-1.859-1.858v-48.854   c0-1.016,0.845-1.859,1.859-1.859h17.251c10.393,0,16.395,5.32,16.395,14.684c0,7.423-4.768,9.791-8.993,11.979   c1.016,1.017,3.111,1.729,4.198,4.73l6.34,18.73C161.992,267.86,162.076,268.031,162.076,268.283L162.076,268.283z"></path>
	<path fill="#FFFFFF" d="M221.926,217.569c0.593,0,1.099,0.259,1.522,0.679c0.338,0.423,0.42,1.011,0.338,1.602l-10.057,48.771   c-0.168,0.927-0.932,1.521-1.858,1.521h-10.735c-0.926,0-1.687-0.594-1.855-1.521l-5.492-30.377l-5.919,30.377   c-0.167,0.927-0.926,1.521-1.857,1.521h-10.562c-0.844,0-1.69-0.594-1.857-1.521l-9.801-48.856c-0.17-0.506,0-1.094,0.335-1.517   c0.423-0.42,0.929-0.679,1.521-0.679h8.367c0.927,0,1.691,0.594,1.859,1.521l5.155,28.184l5.493-28.184   c0.167-0.928,0.929-1.521,1.858-1.521h10.902c0.929,0,1.69,0.594,1.855,1.521l5.496,28.266l5.323-28.266   c0.17-0.928,0.931-1.521,1.86-1.521H221.926L221.926,217.569z"></path>
	<path fill="#FFFFFF" d="M247.628,247.779l-4.05-14.474l-0.195-0.006l-4.316,14.479H247.628L247.628,247.779z M265.863,269.381   c-0.338,0.505-0.929,0.761-1.522,0.761h-9.208c-0.846,0-1.607-0.594-1.86-1.353l-2.957-10.379h-13.945l-3.125,10.379   c-0.255,0.759-1.014,1.353-1.857,1.353h-8.958c-0.591,0-1.182-0.256-1.522-0.761c-0.34-0.507-0.426-1.183-0.255-1.772   l16.396-48.688c0.25-0.843,0.926-1.352,1.772-1.352h9.801c0.846,0,1.522,0.594,1.778,1.352l15.802,48.772   C266.368,268.283,266.283,268.874,265.863,269.381L265.863,269.381z"></path>
	<path fill="#FFFFFF" d="M298.923,217.569c0.59,0,1.269,0.338,1.605,0.844c0.167,0.34,0.253,0.678,0.253,1.016   c0,0.25-0.085,0.591-0.167,0.845l-14.195,29.025v18.984c0,1.013-0.849,1.858-1.945,1.858h-8.955c-1.017,0-1.865-0.846-1.865-1.858   v-19.24l-14.187-28.77c-0.17-0.254-0.255-0.595-0.255-0.845c0-0.338,0.085-0.676,0.335-1.016c0.341-0.506,0.932-0.844,1.607-0.844   h9.634c0.758,0,1.352,0.338,1.688,1.017l7.773,15.863l7.265-15.778c0.34-0.679,1.017-1.102,1.777-1.102H298.923L298.923,217.569z"></path>
	<path fill="#FFFFFF" d="M38.691,290.217h-4.208v6.383h4.208c2.022,0,3.397-1.158,3.397-3.178   C42.088,291.404,40.714,290.217,38.691,290.217L38.691,290.217z M38.854,299.238h-4.37v7.537h-2.911v-19.171h7.281   c3.747,0,6.147,2.479,6.147,5.817C45.001,296.759,42.601,299.238,38.854,299.238L38.854,299.238z"></path>
	<path fill="#FFFFFF" d="M57.313,291.239c-0.674-0.727-1.727-1.184-2.858-1.184c-1.132,0-2.184,0.457-2.859,1.184   c-0.944,1.024-1.133,2.103-1.133,5.95c0,3.854,0.189,4.929,1.133,5.951c0.676,0.729,1.727,1.187,2.859,1.187   c1.131,0,2.184-0.458,2.858-1.187c0.943-1.022,1.132-2.098,1.132-5.951C58.445,293.342,58.256,292.264,57.313,291.239   L57.313,291.239z M59.523,304.892c-1.321,1.319-3.018,2.049-5.068,2.049c-2.048,0-3.722-0.729-5.043-2.049   c-1.888-1.884-1.86-4.011-1.86-7.702c0-3.688-0.028-5.814,1.86-7.698c1.321-1.32,2.995-2.047,5.043-2.047   c2.05,0,3.747,0.727,5.068,2.047c1.888,1.884,1.834,4.01,1.834,7.698C61.358,300.881,61.412,303.008,59.523,304.892L59.523,304.892   z"></path>
	<polygon fill="#FFFFFF" points="80.786,306.775 78.251,306.775 74.344,293.342 70.461,306.775 67.925,306.775 62.911,287.604    65.983,287.604 69.327,301.309 73.183,287.604 75.528,287.604 79.385,301.309 82.728,287.604 85.803,287.604 80.786,306.775  "></polygon>
	<polygon fill="#FFFFFF" points="88.321,306.775 88.321,287.604 100.589,287.604 100.589,290.217 91.233,290.217 91.233,295.816    99.215,295.816 99.215,298.403 91.233,298.403 91.233,304.164 100.589,304.164 100.589,306.775 88.321,306.775  "></polygon>
	<path fill="#FFFFFF" d="M111.526,290.217h-4.311v6.004h4.311c1.943,0,3.266-1.102,3.266-2.988   C114.792,291.352,113.469,290.217,111.526,290.217L111.526,290.217z M114.899,306.775l-4.045-8.074h-3.639v8.074h-2.914v-19.171   h7.443c3.639,0,5.957,2.344,5.957,5.602c0,2.746-1.671,4.498-3.828,5.091l4.423,8.479H114.899L114.899,306.775z"></path>
	<polygon fill="#FFFFFF" points="121.681,306.775 121.681,287.604 133.951,287.604 133.951,290.217 124.594,290.217    124.594,295.816 132.576,295.816 132.576,298.403 124.594,298.403 124.594,304.164 133.951,304.164 133.951,306.775    121.681,306.775  "></polygon>
	<path fill="#FFFFFF" d="M147.369,291.511c-0.809-0.89-1.887-1.294-3.263-1.294h-3.533v13.947h3.533c1.376,0,2.454-0.401,3.263-1.29   c0.998-1.106,1.024-3.178,1.024-5.817S148.366,292.612,147.369,291.511L147.369,291.511z M149.365,304.972   c-1.214,1.214-2.966,1.804-4.962,1.804h-6.741v-19.171h6.741c1.996,0,3.748,0.593,4.962,1.804c2.077,2.076,1.941,4.876,1.941,7.648   C151.306,299.83,151.441,302.901,149.365,304.972L149.365,304.972z"></path>
	<path fill="#FFFFFF" d="M169.288,298.323h-4.584v5.841h4.584c2.022,0,3.155-1.237,3.155-2.935   C172.442,299.531,171.31,298.323,169.288,298.323L169.288,298.323z M169.016,290.217h-4.312v5.493h4.312   c1.863,0,3.129-0.969,3.129-2.746C172.146,291.186,170.879,290.217,169.016,290.217L169.016,290.217z M169.556,306.775h-7.765   v-19.171h7.47c3.561,0,5.796,2.022,5.796,5.253c0,2.07-1.293,3.553-2.587,4.066c1.482,0.591,2.885,2.018,2.885,4.441   C175.355,304.892,172.953,306.775,169.556,306.775L169.556,306.775z"></path>
	<polygon fill="#FFFFFF" points="185.414,298.888 185.414,306.775 182.503,306.775 182.503,298.888 176.76,287.604 179.94,287.604    183.959,296.035 187.977,287.604 191.16,287.604 185.414,298.888  "></polygon>
	<polygon fill="#FFFFFF" points="211.505,306.775 202.632,293.289 202.632,306.775 199.721,306.775 199.721,287.604 202.39,287.604    211.26,301.07 211.26,287.604 214.171,287.604 214.171,306.775 211.505,306.775  "></polygon>
	<path fill="#FFFFFF" d="M224.891,291.942l-2.991,8.508h5.905L224.891,291.942L224.891,291.942z M229.937,306.775l-1.323-3.849   h-7.576l-1.32,3.849h-3.103l7.039-19.171h2.345l7.036,19.171H229.937L229.937,306.775z"></path>
	<polygon fill="#FFFFFF" points="240.358,290.217 240.358,306.775 237.446,306.775 237.446,290.217 232.161,290.217    232.161,287.604 245.643,287.604 245.643,290.217 240.358,290.217  "></polygon>
	<path fill="#FFFFFF" d="M255.261,306.94c-3.912,0-6.877-2.666-6.877-6.626v-12.71h2.912v12.576c0,2.558,1.565,4.146,3.965,4.146   s3.992-1.589,3.992-4.146v-12.576h2.911v12.71C262.164,304.274,259.17,306.94,255.261,306.94L255.261,306.94z"></path>
	<path fill="#FFFFFF" d="M273.825,290.217h-4.314v6.004h4.314c1.943,0,3.262-1.102,3.262-2.988   C277.087,291.352,275.768,290.217,273.825,290.217L273.825,290.217z M277.194,306.775l-4.04-8.074h-3.643v8.074H266.6v-19.171   h7.443c3.638,0,5.956,2.344,5.956,5.602c0,2.746-1.674,4.498-3.83,5.091l4.423,8.479H277.194L277.194,306.775z"></path>
	<polygon fill="#FFFFFF" points="283.978,306.775 283.978,287.604 296.246,287.604 296.246,290.217 286.894,290.217    286.894,295.816 294.875,295.816 294.875,298.403 286.894,298.403 286.894,304.164 296.246,304.164 296.246,306.775    283.978,306.775  "></polygon>
</g>
</svg>
