<?xml version="1.0" encoding="UTF-8"?>
<!-- Generator: Adobe Illustrator 16.0.0, SVG Export Plug-In . SVG Version: 6.00 Build 0)  -->
<svg xmlns="http://www.w3.org/2000/svg" xmlns:xlink="http://www.w3.org/1999/xlink" id="Layer_1" x="0px" y="0px" width="600px" height="141px" viewBox="0 -1.5 600 141" xml:space="preserve">
<rect x="2.306" y="-1.5" fill="#FAFAFA" width="598.194" height="141"></rect>
<g>
	<g>
		<g>
			<defs>
				<rect id="SVGID_1_" x="2.153" y="40.114" width="475.964" height="88.552"></rect>
			</defs>
			<clipPath id="SVGID_2_">
				<use xlink:href="#SVGID_1_" overflow="visible"></use>
			</clipPath>
			<g clip-path="url(#SVGID_2_)">
				<g>
					<defs>
						<rect id="SVGID_3_" x="-63.992" y="-25.545" width="608.255" height="219.868"></rect>
					</defs>
					<defs>
						<rect id="SVGID_4_" x="-63.992" y="-25.545" width="608.255" height="219.868"></rect>
					</defs>
					<clipPath id="SVGID_5_">
						<use xlink:href="#SVGID_3_" overflow="visible"></use>
					</clipPath>
					<clipPath id="SVGID_6_" clip-path="url(#SVGID_5_)">
						<use xlink:href="#SVGID_4_" overflow="visible"></use>
					</clipPath>
					<path clip-path="url(#SVGID_6_)" d="M93.24,81.768h-2.641c-5.409,0-9.302,3.67-9.302,9.022c0,4.092,1.188,8.71,6.489,8.71       c4.976,0,5.949-3.675,5.949-7.661v-9.636C93.735,82.204,93.881,81.768,93.24,81.768 M113.939,102.643h2.378       c0.836,0,0.673,0.583,0.673,0.583v5.143c0,0.836-0.801,0.575-0.801,0.575H95.682c0,0-0.42,0.061-0.572-0.577       c-0.289-1.226-0.673-2.626-0.865-3.721c-0.194-1.094-0.94-0.02-0.94-0.02c-4.224,3.368-8.789,5.889-14.604,5.889       c-9.844,0-17.2-6.189-17.2-15.95c0-12.167,7.789-19.093,17.416-19.093l14.646-0.364c0,0,0.173-0.039,0.173-0.618v-1.643       c0-4.3-2.379-6.101-7.139-6.101c-6.082,0-8.911,2.207-11.739,5.688c0,0-0.183,0.413-0.763,0.155       c-0.58-0.255-5.798-2.086-5.798-2.086s-0.457-0.029-0.2-0.673c0.256-0.642,6.521-16.033,6.521-16.033s0.048-0.538,0.562-0.344       c0.763,0.286,4.826,1.532,5.531,1.789c0.644,0.258,0.377,0.797,0.377,0.797s-0.201,0.705-0.446,1.288       C80.128,58.549,81,58.029,81,58.029c4.034-1.558,8.131-2.177,12.413-2.177c12.115,0,20.12,5.036,20.12,17.417v28.414       C113.531,101.682,113.425,102.643,113.939,102.643 M115.168,59.733c8.104-2.32,15.358-7.742,18.765-15.329       c0,0,0.062-0.567,0.639-0.439c0.581,0.127,4.706,0.835,5.596,1.013c0.644,0.127,0.372,0.514,0.372,0.514       c-0.492,2.498-0.649,5.483-0.649,7.736v3.774c0,0.58,0.406,0.422,0.406,0.422h8.808c0.513,0,0.316,0.477,0.316,0.477       s-1.311,6.486-1.466,7.268c-0.13,0.643-0.587,0.438-0.587,0.438h-7.007c-0.578,0-0.469,0.396-0.469,0.396v29.925       c0,3.253,2.812,3.889,4.432,3.889c1.637,0,1.922,0.034,3.191-0.614c0,0,0.457-0.423,0.649,0.222       c0.157,0.524,1.96,4.768,2.148,5.192c0.235,0.525-0.23,0.682-0.23,0.682c-6.945,4.979-7.582,5.214-16.356,5.214       c-9.844,0-13.63-4.721-13.63-13.85v-30.66c0,0,0.145-0.396-0.369-0.396h-4.564c0,0-0.368,0.204-0.368-0.504v-4.822       C114.793,59.832,115.168,59.733,115.168,59.733 M260.988,83.128c0-16.891,13.308-27.277,30.504-27.277       c17.31,0,30.611,10.386,30.611,27.277c0,16.997-13.302,27.386-30.611,27.386C274.295,110.514,260.988,100.125,260.988,83.128        M280.783,75.682c0,7.554,3.246,26.861,14.169,26.861c5.843,0,7.358-6.193,7.358-11.861c0-7.554-3.248-26.857-14.173-26.857       C280.783,63.825,280.783,71.798,280.783,75.682 M382.91,108.943h-26.614c0,0-0.461,0.068-0.461-0.382v-5.464       c0-0.514,0.591-0.454,0.591-0.454h3.148c0.515,0,0.371-0.382,0.371-0.382V73.057c0-3.04-2.812-4.616-5.73-4.616       c-3.494,0-6.012,1.894-8.479,3.972c0,0-0.391,0.277-0.391,0.791v29.057c0,0-0.106,0.382,0.409,0.382h3.277       c0,0,0.532-0.189,0.532,0.454v5.464c0,0.45-0.404,0.382-0.404,0.382h-27.062c0,0-0.334,0.196-0.334-0.511v-5.336       c0-0.643,0.334-0.454,0.334-0.454h3.086c0.512,0,0.365-0.446,0.365-0.446V67.804c0,0,0.262-0.633-0.51-0.375       c-0.771,0.256-2.748,0.762-2.748,0.762s-0.527,0.255-0.527-0.323v-5.272c0-0.578,0.461-0.572,0.461-0.572l22.824-6.038       c0,0,0.512-0.269,0.512,0.311v7.521c0,0.836,0.521,0.137,0.521,0.137c5.343-4.069,10.745-8.104,17.975-8.104       c13.739,0,15.687,9.128,15.687,14.899v31.382c0,0-0.048,0.51,0.403,0.51h2.828c0,0,0.445-0.125,0.445,0.454v5.336       C383.42,109.139,382.91,108.943,382.91,108.943 M410.366,55.994l-22.753,6.25c0,0-0.416,0.031-0.416,0.481v5.079       c0,0.706,0.666,0.406,0.666,0.406s1.474-0.305,2.766-0.512c0.648-0.106,0.463,0.492,0.463,0.942v33.492       c0,0,0.176,0.51-0.466,0.51h-3.217c0,0-0.429-0.189-0.429,0.518v5.335c0,0.643,0.429,0.447,0.429,0.447h26.616       c0.643,0,0.427-0.511,0.427-0.511s-0.011-4.439,0-5.271c0.012-0.71-0.492-0.518-0.492-0.518h-2.637       c-0.642,0-0.438-0.446-0.438-0.446V56.361C410.886,55.718,410.366,55.994,410.366,55.994 M402.124,40.114       c4.651,0,9.625,1.153,9.625,6.609c0,6.61-8.543,8.918-13.952,8.918c-4.324,0-7.354-2.202-7.354-6.504       C390.441,43.995,397.471,40.114,402.124,40.114 M182.458,81.761h-2.641c-5.407,0-9.302,3.671-9.302,9.021       c0,4.093,1.19,8.71,6.49,8.71c4.978,0,5.948-3.673,5.948-7.661v-9.632C182.953,82.2,183.101,81.761,182.458,81.761        M203.159,102.639h2.376c0.836,0,0.675,0.582,0.675,0.582v5.142c0,0.833-0.803,0.573-0.803,0.573H184.9       c0,0-0.42,0.062-0.57-0.575c-0.291-1.228-0.672-2.628-0.864-3.721c-0.195-1.093-0.942-0.021-0.942-0.021       c-4.222,3.37-8.789,5.89-14.604,5.89c-9.844,0-17.2-6.189-17.2-15.946c0-12.17,7.789-19.095,17.417-19.095l14.644-0.366       c0,0,0.173-0.04,0.173-0.616v-1.641c0-4.304-2.377-6.103-7.137-6.103c-6.082,0-8.913,2.209-11.74,5.688       c0,0-0.185,0.414-0.764,0.155c-0.578-0.255-5.796-2.086-5.796-2.086s-0.458-0.029-0.2-0.671       c0.256-0.644,6.519-16.035,6.519-16.035s0.05-0.536,0.563-0.344c0.761,0.286,4.826,1.532,5.531,1.79       c0.644,0.256,0.376,0.796,0.376,0.796s-0.201,0.704-0.445,1.287c-0.514,1.222,0.356,0.702,0.356,0.702       c4.036-1.558,8.131-2.177,12.412-2.177c12.116,0,20.122,5.036,20.122,17.417v28.414       C202.751,101.677,202.643,102.639,203.159,102.639 M224.131,69.49c0,5.667,3.353,21.508,11.467,21.508       c4.001,0,5.625-1.995,5.625-7.03c0-5.664-3.352-21.506-11.466-21.506C225.755,62.461,224.131,64.455,224.131,69.49        M232.571,111.557c-0.793,0.832-1.625,4.304-1.625,6.618c0,2.622,1.407,5.454,4.436,5.454c2.705,0,4.108-1.26,4.108-3.88       c0-4.637-2.598-6.273-6.159-8.441C233.331,111.307,233.049,111.052,232.571,111.557 M254.124,57.4       c-1.114-0.668-1.24-0.837-3.493-0.709c-1.296,0.073-1.944,1.153-1.944,2.31c0,2.098,10.166,5.35,10.166,17.625       c0,16.3-15.161,19.718-28.111,22.918c0,0-1.472,0.303,0.007,0.444c8.679,0.836,26.374,3.048,26.374,14.516       c0,11.433-15.683,14.164-22.174,14.164c-9.519,0-19.253-1.996-19.253-10.493c0-4.882,5.264-8.153,9.775-8.921       c0,0,1.35-0.206,0.004-0.375c-1.538-0.193-10.128-0.948-13.118-0.337c0,0-0.664,0.095-0.857-0.42       c-0.273-0.728-2.027-5.219-2.184-5.596c-0.32-0.771,0.34-0.807,0.34-0.807c6.395-1.03,11.981-4.407,14.66-5.182       c1.428-0.415,0-0.625,0-0.625c-9.032-1.593-17.814-7.743-17.814-18.446c0-15.107,12.331-21.613,24.122-21.613       c5.441,0,8.545,0.85,11.436,1.296c0,0,0.438,0.193,0.63-0.45c0.275-0.915,1.13-3.469,1.13-3.469       c1.296-3.882,3.245-5.456,9.084-5.456c1.111,0,2.293,0.153,3.425,0.263c0,0,0.585-0.159,0.455,0.546       c-0.104,0.584-2.003,8.162-2.117,8.616C254.474,57.971,254.124,57.4,254.124,57.4 M446.284,81.761h-2.636       c-5.41,0-9.308,3.671-9.308,9.021c0,4.093,1.19,8.71,6.491,8.71c4.977,0,5.95-3.673,5.95-7.661v-9.632       C446.783,82.2,446.929,81.761,446.284,81.761 M466.985,102.639h2.378c0.836,0,0.675,0.582,0.675,0.582v5.142       c0,0.833-0.803,0.573-0.803,0.573h-20.508c0,0-0.418,0.062-0.567-0.575c-0.293-1.228-0.676-2.628-0.868-3.721       c-0.194-1.093-0.942-0.021-0.942-0.021c-4.221,3.37-8.784,5.89-14.604,5.89c-9.844,0-17.196-6.189-17.196-15.946       c0-12.17,7.785-19.095,17.413-19.095l14.645-0.366c0,0,0.177-0.04,0.177-0.616v-1.641c0-4.304-2.381-6.103-7.142-6.103       c-6.078,0-8.909,2.209-11.737,5.688c0,0-0.184,0.414-0.766,0.155c-0.575-0.255-5.798-2.086-5.798-2.086       s-0.455-0.029-0.195-0.671c0.258-0.644,6.52-16.035,6.52-16.035s0.048-0.536,0.562-0.344c0.761,0.286,4.824,1.532,5.532,1.79       c0.644,0.256,0.376,0.796,0.376,0.796s-0.203,0.704-0.449,1.287c-0.513,1.222,0.359,0.702,0.359,0.702       c4.035-1.558,8.131-2.177,12.409-2.177c12.117,0,20.121,5.036,20.121,17.417v28.414       C466.577,101.677,466.471,102.639,466.985,102.639 M25.734,68.318v25.757c0,4.616,1.514,8.5,6.707,8.5       c6.491,0,9.303-3.986,9.303-15.74c0-18.884-9.518-19.828-12.871-19.828l-2.562,0.429C26.31,67.437,25.734,67.609,25.734,68.318        M26.257,60.611c4.619-2.772,8.311-4.725,13.105-4.725c12.44,0,22.175,10.072,22.175,25.075       c0,14.793-9.302,29.589-25.311,29.589c-3.081,0-7.139-0.378-10.041-1.857c0,0-0.452-0.197-0.452,0.318v9.064       c0,0,0.005,0.864,0.647,0.864h5.785c0,0,0.599-0.029,0.599,0.678v4.886c0,0.515-0.533,0.736-0.533,0.736H2.981       c0,0-0.829,0.036-0.829-0.671v-4.95c0-0.771,0.637-0.678,0.637-0.678h2.443c0.708,0,0.708-0.736,0.708-0.736V67.933       c0-0.707-0.643-0.45-0.643-0.45L2.664,68.14c0,0-0.511,0.243-0.511-0.465v-5.271c0-0.578,0.45-0.548,0.45-0.548l22.622-5.82       c0,0,0.51-0.187,0.51,0.391v3.92C25.734,60.861,26.257,60.611,26.257,60.611"></path>
					<path clip-path="url(#SVGID_6_)" d="M476.099,56.814c-1.343,1.351-2.97,2.026-4.881,2.026c-1.908,0-3.531-0.675-4.872-2.026       c-1.333-1.342-1.998-2.971-1.998-4.882c0-1.895,0.675-3.512,2.021-4.857c1.339-1.339,2.954-2.005,4.851-2.005       c1.911,0,3.538,0.667,4.881,2.005c1.351,1.336,2.02,2.957,2.02,4.857C478.117,53.837,477.448,55.465,476.099,56.814        M467.024,47.753c-1.156,1.155-1.736,2.551-1.736,4.188c0,1.647,0.577,3.052,1.727,4.215c1.156,1.161,2.56,1.74,4.213,1.74       s3.059-0.58,4.216-1.74c1.156-1.163,1.73-2.568,1.73-4.215c0-1.637-0.574-3.032-1.73-4.188       c-1.164-1.161-2.566-1.743-4.216-1.743C469.588,46.011,468.188,46.593,467.024,47.753 M471.093,48.127       c0.944,0,1.639,0.089,2.074,0.271c0.787,0.328,1.18,0.968,1.18,1.922c0,0.676-0.243,1.177-0.736,1.497       c-0.262,0.168-0.625,0.29-1.089,0.365c0.584,0.096,1.012,0.34,1.279,0.741c0.271,0.4,0.401,0.792,0.401,1.172v0.552       c0,0.176,0.008,0.364,0.021,0.563c0.015,0.199,0.037,0.331,0.071,0.393l0.051,0.094H473.1c-0.007-0.026-0.015-0.05-0.019-0.073       c-0.006-0.026-0.014-0.055-0.021-0.086l-0.026-0.243v-0.598c0-0.872-0.245-1.448-0.729-1.729       c-0.288-0.161-0.792-0.243-1.515-0.243h-1.073v2.971h-1.286v-7.57H471.093z M472.546,49.348       c-0.346-0.187-0.896-0.279-1.657-0.279h-1.171v2.715h1.239c0.578,0,1.014-0.057,1.305-0.167       c0.533-0.206,0.799-0.595,0.799-1.171C473.061,49.898,472.889,49.535,472.546,49.348"></path>
				</g>
			</g>
		</g>
	</g>
</g>
</svg>
