<?xml version="1.0" encoding="UTF-8"?>
<!-- Generator: Adobe Illustrator 16.0.0, SVG Export Plug-In . SVG Version: 6.00 Build 0)  -->
<svg xmlns="http://www.w3.org/2000/svg" xmlns:xlink="http://www.w3.org/1999/xlink" id="Layer_1" x="0px" y="0px" width="600px" height="131px" viewBox="0.25 145.5 600 131" xml:space="preserve">
<rect x="2.556" y="145.5" fill="#FAFAFA" width="598.194" height="131"></rect>
<g>
	<defs>
		<rect id="SVGID_1_" x="4.556" y="198.126" width="274.194" height="58.25"></rect>
	</defs>
	<clipPath id="SVGID_2_">
		<use xlink:href="#SVGID_1_" overflow="visible"></use>
	</clipPath>
	<g clip-path="url(#SVGID_2_)">
		<g>
			<defs>
				<rect id="SVGID_3_" x="-17.286" y="176.264" width="317.875" height="101.974"></rect>
			</defs>
			<clipPath id="SVGID_4_">
				<use xlink:href="#SVGID_3_" overflow="visible"></use>
			</clipPath>
			<path clip-path="url(#SVGID_4_)" d="M66.232,200.588h11.702v52.88H66.232V200.588z M194.668,200.588l-8.211,29.33h-0.161     l-8.602-29.33h-15.038l-8.353,52.88h11.492l5.219-37.835h0.152l10.4,37.835h9.691l10.011-37.835h0.18l5.512,37.835h11.83     l-8.813-52.88H194.668L194.668,200.588z M266.369,253.476h12.38l-20.977-52.882h-16.347l-20.913,52.882H232.1l4.229-10.571     h25.889L266.369,253.476L266.369,253.476z M249.304,210.171h0.144l8.881,22.774h-18.051L249.304,210.171z M116.406,222.058     v10.933h18.644v0.676c0,6.948-6.096,11.949-16.059,11.949c-10.048,0-18.061-5.343-18.061-18.316     c0-13.238,8.453-18.391,18.07-18.391c7.723,0,13.284,1.363,19.558,4.529l5.37-8.971c-6.543-3.792-16.068-6.176-24.927-6.176     c-16.066,0-30.403,8.575-30.403,29.208c0,18.098,12.42,28.455,29.846,28.455c19.223,0,28.39-9.183,28.742-25.701     c0.054-2.462-0.042-4.823-0.197-8.194L116.406,222.058L116.406,222.058z M42.489,222.706c-7.292-1.573-12.22-0.965-19.591-2.377     c-4.614-0.881-6.03-2.542-6.03-4.852c0-4.395,5.795-6.651,13.465-6.651c6.016,0,12.109,1.422,17.914,4.088l5.641-9.576     c-6.219-3.209-15.012-5.212-24.758-5.212c-9.444,0-24.303,4.353-24.303,18.12c0,8.098,5.427,12.991,12.311,14.609     c6.63,1.546,10.829,1.163,18.777,2.363c5.151,0.776,7.192,2.462,7.192,5.443c0,4.25-5.425,6.862-13.445,6.862     c-6.577,0-13.538-1.418-20.342-4.309l-4.762,9.931c8.409,3.815,17.104,5.231,24.33,5.231c16.193,0,26.732-6.916,26.732-18.584     C55.617,229.999,50.938,224.535,42.489,222.706"></path>
		</g>
	</g>
</g>
<rect x="844" y="737.333" fill="#FAFAFA" width="4" height="5"></rect>
</svg>
