<?xml version="1.0" encoding="UTF-8"?>
<!-- Generator: Adobe Illustrator 16.0.0, SVG Export Plug-In . SVG Version: 6.00 Build 0)  -->
<svg xmlns="http://www.w3.org/2000/svg" xmlns:xlink="http://www.w3.org/1999/xlink" id="Layer_1" x="0px" y="0px" width="600px" height="306px" viewBox="0 15.5 600 306" xml:space="preserve">
<rect x="2.306" y="15.5" fill="#FAFAFA" width="598.194" height="306"></rect>
<g>
	<g>
		<g>
			<defs>
				<rect id="SVGID_1_" x="2.306" y="158.847" width="343.04" height="72.877"></rect>
			</defs>
			<clipPath id="SVGID_2_">
				<use xlink:href="#SVGID_1_" overflow="visible"></use>
			</clipPath>
		</g>
	</g>
</g>
<rect x="844" y="624" fill="#FAFAFA" width="4" height="5"></rect>
<g>
	<polygon points="386.232,310.244 0,310.244 0,52.756 386.232,52.756  "></polygon>
	<path fill="#FFFFFF" d="M69.452,193.812c1.096,0,1.941,0.845,1.941,1.945v48.77c0,1.013-0.845,1.857-1.941,1.857H58.806   c-0.759,0-1.437-0.42-1.775-1.183l-13.979-29.704v29.028c0,1.013-0.847,1.858-1.858,1.858h-8.112c-1.099,0-1.943-0.847-1.943-1.858   v-48.769c0-1.103,0.844-1.945,1.943-1.945h10.645c0.764,0,1.437,0.509,1.691,1.184l14.062,30.038V195.76   c0-1.103,0.846-1.945,1.86-1.945h8.112V193.812z"></path>
	<path fill="#FFFFFF" d="M106.452,220.141c0-7.511-1.439-16.371-8.365-16.371c-6.846,0-8.283,8.86-8.283,16.371   c0,5.908,0.93,10.295,2.703,13.08c1.354,2.192,3.212,3.207,5.581,3.207C105.013,236.428,106.452,227.568,106.452,220.141   L106.452,220.141z M119.464,220.141c0,19.916-11.492,26.918-21.377,26.918c-9.801,0-21.296-7.002-21.296-26.918   c0-19.912,11.495-27.002,21.296-27.002C107.972,193.141,119.464,200.229,119.464,220.141L119.464,220.141z"></path>
	<path fill="#FFFFFF" d="M148.651,209.512c0-3.968-2.656-5.062-7.386-5.062h-3.643v10.544h3.643   C145.321,214.994,148.651,213.139,148.651,209.512L148.651,209.512z M162.076,244.527c0,0.338-0.165,0.759-0.425,1.098   c-0.333,0.505-0.927,0.762-1.52,0.762h-9.461c-0.844,0-1.608-0.507-1.86-1.354l-4.815-15.863c-0.845-2.785-3.501-3.798-6.289-3.798   h-0.083c0.083,0,0,19.155,0,19.155c0,1.013-0.847,1.857-1.947,1.857h-8.957c-1.014,0-1.859-0.846-1.859-1.857v-48.854   c0-1.016,0.845-1.858,1.859-1.858h17.251c10.393,0,16.395,5.32,16.395,14.684c0,7.423-4.768,9.791-8.993,11.979   c1.016,1.018,3.111,1.729,4.198,4.73l6.34,18.73C161.992,244.104,162.076,244.275,162.076,244.527L162.076,244.527z"></path>
	<path fill="#FFFFFF" d="M221.926,193.812c0.593,0,1.099,0.26,1.522,0.68c0.338,0.423,0.42,1.011,0.338,1.602l-10.057,48.771   c-0.168,0.927-0.932,1.521-1.858,1.521h-10.735c-0.926,0-1.687-0.595-1.855-1.521l-5.492-30.377l-5.919,30.377   c-0.167,0.927-0.926,1.521-1.857,1.521h-10.562c-0.844,0-1.69-0.595-1.857-1.521l-9.801-48.855c-0.17-0.507,0-1.095,0.335-1.518   c0.423-0.42,0.929-0.68,1.521-0.68h8.367c0.927,0,1.691,0.595,1.859,1.521l5.155,28.184l5.493-28.184   c0.167-0.928,0.929-1.521,1.858-1.521h10.902c0.929,0,1.69,0.595,1.855,1.521l5.496,28.266l5.323-28.266   c0.17-0.928,0.931-1.521,1.86-1.521H221.926L221.926,193.812z"></path>
	<path fill="#FFFFFF" d="M247.628,224.023l-4.05-14.475l-0.195-0.006l-4.316,14.479h8.561V224.023z M265.863,245.625   c-0.338,0.506-0.929,0.762-1.522,0.762h-9.208c-0.846,0-1.607-0.595-1.86-1.354l-2.957-10.379h-13.945l-3.125,10.379   c-0.255,0.759-1.014,1.354-1.857,1.354h-8.958c-0.591,0-1.182-0.257-1.522-0.762c-0.34-0.507-0.426-1.183-0.255-1.771   l16.396-48.688c0.25-0.843,0.926-1.353,1.772-1.353h9.801c0.846,0,1.522,0.595,1.778,1.353l15.802,48.772   C266.368,244.527,266.283,245.118,265.863,245.625L265.863,245.625z"></path>
	<path fill="#FFFFFF" d="M298.923,193.812c0.59,0,1.269,0.339,1.604,0.845c0.168,0.34,0.254,0.678,0.254,1.017   c0,0.25-0.086,0.59-0.167,0.844l-14.195,29.025v18.984c0,1.013-0.849,1.857-1.945,1.857h-8.955c-1.017,0-1.865-0.846-1.865-1.857   v-19.24l-14.187-28.77c-0.17-0.254-0.255-0.596-0.255-0.846c0-0.338,0.085-0.676,0.335-1.016c0.341-0.506,0.932-0.844,1.607-0.844   h9.634c0.758,0,1.352,0.338,1.688,1.017l7.773,15.863l7.265-15.778c0.34-0.679,1.017-1.102,1.777-1.102H298.923L298.923,193.812z"></path>
	<path fill="#FFFFFF" d="M38.691,266.461h-4.208v6.383h4.208c2.022,0,3.397-1.158,3.397-3.178   C42.088,267.648,40.714,266.461,38.691,266.461L38.691,266.461z M38.854,275.482h-4.37v7.537h-2.911v-19.172h7.281   c3.747,0,6.147,2.479,6.147,5.817S42.601,275.482,38.854,275.482L38.854,275.482z"></path>
	<path fill="#FFFFFF" d="M57.313,267.483c-0.674-0.728-1.727-1.185-2.858-1.185c-1.132,0-2.184,0.457-2.859,1.185   c-0.944,1.024-1.133,2.103-1.133,5.95c0,3.854,0.189,4.929,1.133,5.95c0.676,0.729,1.727,1.188,2.859,1.188   c1.131,0,2.184-0.458,2.858-1.188c0.943-1.021,1.132-2.098,1.132-5.95C58.445,269.586,58.256,268.508,57.313,267.483   L57.313,267.483z M59.523,281.136c-1.321,1.319-3.018,2.05-5.068,2.05c-2.048,0-3.722-0.729-5.043-2.05   c-1.888-1.884-1.86-4.011-1.86-7.702c0-3.688-0.028-5.813,1.86-7.697c1.321-1.32,2.995-2.047,5.043-2.047   c2.05,0,3.747,0.727,5.068,2.047c1.888,1.884,1.834,4.01,1.834,7.697C61.358,277.125,61.412,279.252,59.523,281.136L59.523,281.136   z"></path>
	<polygon fill="#FFFFFF" points="80.786,283.02 78.251,283.02 74.344,269.586 70.461,283.02 67.925,283.02 62.911,263.848    65.983,263.848 69.327,277.553 73.183,263.848 75.528,263.848 79.385,277.553 82.728,263.848 85.803,263.848  "></polygon>
	<polygon fill="#FFFFFF" points="88.321,283.02 88.321,263.848 100.589,263.848 100.589,266.461 91.233,266.461 91.233,272.061    99.215,272.061 99.215,274.647 91.233,274.647 91.233,280.408 100.589,280.408 100.589,283.02  "></polygon>
	<path fill="#FFFFFF" d="M111.526,266.461h-4.311v6.004h4.311c1.943,0,3.266-1.102,3.266-2.988   C114.792,267.596,113.469,266.461,111.526,266.461L111.526,266.461z M114.899,283.02l-4.045-8.074h-3.639v8.074h-2.914v-19.172   h7.443c3.639,0,5.957,2.345,5.957,5.603c0,2.746-1.671,4.498-3.828,5.091l4.423,8.479L114.899,283.02L114.899,283.02z"></path>
	<polygon fill="#FFFFFF" points="121.681,283.02 121.681,263.848 133.951,263.848 133.951,266.461 124.594,266.461 124.594,272.061    132.576,272.061 132.576,274.647 124.594,274.647 124.594,280.408 133.951,280.408 133.951,283.02  "></polygon>
	<path fill="#FFFFFF" d="M147.369,267.755c-0.809-0.89-1.887-1.294-3.263-1.294h-3.533v13.947h3.533c1.376,0,2.454-0.401,3.263-1.29   c0.998-1.106,1.024-3.178,1.024-5.817C148.393,270.662,148.366,268.855,147.369,267.755L147.369,267.755z M149.365,281.216   c-1.214,1.214-2.966,1.805-4.962,1.805h-6.741V263.85h6.741c1.996,0,3.748,0.592,4.962,1.804c2.077,2.075,1.941,4.876,1.941,7.647   C151.306,276.074,151.441,279.146,149.365,281.216L149.365,281.216z"></path>
	<path fill="#FFFFFF" d="M169.288,274.567h-4.584v5.841h4.584c2.022,0,3.155-1.237,3.155-2.936   C172.442,275.775,171.31,274.567,169.288,274.567L169.288,274.567z M169.016,266.461h-4.312v5.493h4.312   c1.863,0,3.129-0.969,3.129-2.746C172.146,267.43,170.879,266.461,169.016,266.461L169.016,266.461z M169.556,283.02h-7.765   v-19.172h7.47c3.561,0,5.796,2.022,5.796,5.254c0,2.069-1.293,3.553-2.587,4.065c1.482,0.591,2.885,2.019,2.885,4.441   C175.355,281.136,172.953,283.02,169.556,283.02L169.556,283.02z"></path>
	<polygon fill="#FFFFFF" points="185.414,275.132 185.414,283.02 182.503,283.02 182.503,275.132 176.76,263.848 179.94,263.848    183.959,272.279 187.977,263.848 191.16,263.848  "></polygon>
	<polygon fill="#FFFFFF" points="211.505,283.02 202.632,269.533 202.632,283.02 199.721,283.02 199.721,263.848 202.39,263.848    211.26,277.314 211.26,263.848 214.171,263.848 214.171,283.02  "></polygon>
	<path fill="#FFFFFF" d="M224.891,268.186l-2.991,8.509h5.905L224.891,268.186L224.891,268.186z M229.937,283.02l-1.323-3.85h-7.576   l-1.32,3.85h-3.103l7.039-19.172h2.345l7.036,19.172H229.937L229.937,283.02z"></path>
	<polygon fill="#FFFFFF" points="240.358,266.461 240.358,283.02 237.446,283.02 237.446,266.461 232.161,266.461 232.161,263.848    245.643,263.848 245.643,266.461  "></polygon>
	<path fill="#FFFFFF" d="M255.261,283.185c-3.912,0-6.877-2.666-6.877-6.626v-12.711h2.912v12.576c0,2.559,1.565,4.146,3.965,4.146   c2.4,0,3.992-1.589,3.992-4.146v-12.576h2.911v12.711C262.164,280.519,259.17,283.185,255.261,283.185L255.261,283.185z"></path>
	<path fill="#FFFFFF" d="M273.825,266.461h-4.314v6.004h4.314c1.943,0,3.262-1.102,3.262-2.988   C277.087,267.596,275.768,266.461,273.825,266.461L273.825,266.461z M277.194,283.02l-4.04-8.074h-3.643v8.074H266.6v-19.172h7.443   c3.638,0,5.956,2.345,5.956,5.603c0,2.746-1.674,4.498-3.83,5.091l4.423,8.479L277.194,283.02L277.194,283.02z"></path>
	<polygon fill="#FFFFFF" points="283.978,283.02 283.978,263.848 296.246,263.848 296.246,266.461 286.894,266.461 286.894,272.061    294.875,272.061 294.875,274.647 286.894,274.647 286.894,280.408 296.246,280.408 296.246,283.02  "></polygon>
</g>
</svg>
